/* XPM */
static char *result[] = {
/* columns rows colors chars-per-pixel */
"64 64 11 1 ",
"  c #293C42",
". c #29795A",
"X c #394D63",
"o c #315163",
"O c #47576F",
"+ c #319A63",
"@ c #29CB73",
"# c #5A738D",
"$ c #658DA9",
"% c #7DB8C3",
"& c None",
/* pixels */
"&&&&&&&&&&&&&&&&&&&&&&&&&&&&&&&&&&&&&&&&&&&&&&&&&&&&&&&&&&&&&&&&",
"&&&&&&&&&&&&&&&&&&&&&&&&&&&&&&&&&&&&&&&&&&&&&&&&&&&&&&&&&&&&&&&&",
"&&&&&&&&&&&&&&&&&&&&&&&&&&&&&&&&&&&&&&&&&&&&&&&&&&&&&&&&&&&&&&&&",
"&&&oooo&&&&&&&&&&&&&&&&&&&&&&&&&&&&&&&&&&&&&&&&&&&&&&&&&&&&&&&&&",
"&&&oooo&&&&&&&&&&&&&&&&&&&&&&&&&&&&&&&&&&&&&&&&&&&&&&&&&&&&&&&&&",
"&&&oo++oo&&&&&&&&&&&&&&&&&&&&&&&&&&&&&&&&&&&&&&&&oooo&&&&&&&&&&&",
"&&&oo++oo&&&&&&&&&&&&&&&&&&&&&&&&&&&&&&&&&&&&&&&&oooo&&&&&&&&&&&",
"&&&oo@@oo&&&&&&&&&&&&&&&&&&&&&&&&&&&&&&&&&&&&&&&&oo++oo&&&&&&&&&",
"&&&oo@@oo&&&&&&&&&&&&&&&&&&&&&&&&&&&&&&&&&&&&&&&&oo++oo&&&&&&&&&",
"&&&oo@@oo&&&&&&&&&&&&&&&&&&&&&&&&&&&&&&&&&&&&&&&&oo@@oo&&&&&&&&&",
"&&&oo@@oo&&&&&&&&&&&&&&&&&&&&&&&&&&&&&&&&&&&&&&&&oo@@oo&&&&&&&&&",
"&oo++@@oo&&&&&&&&&&&&&&&&&&&&&&&&&&&&&&&&&&&&&&&&oo@@oo&&&&&&&&&",
"&oo++@@oo&&&&&&&&&&&&&&&&&&&&&&&&&&&&&&&&&&&&&&&&oo@@oo&&&&&&&&&",
"&oo@@@@oo&&&&&&&&&&&&&&&&&&&&&&&&&&&&&&&&&&&&&&&&oo@@++oo&&&&&&&",
"&oo@@@@oo&&&&&&&&&&&&&&&&&&&&&&&&&&&&&&&&&&&&&&&&oo@@++oo&&&&&&&",
"&oo@@@@oo&&&&&&&&oooo&&&&&&&&&&&&&&&&&&&&&&&&&&&&oo@@@@oo&&&&&&&",
"&oo@@@@oo&&&&&&&&oooo&&&&&&&&&&&&&&&&&&&&&&&&&&&&oo@@@@oo&&&&&&&",
"&oo@@++oo&&&&&&oo++oo&&&&&&&&&&&&&&&&&&&&&&&&&&oo..@@++oo&&oooo&",
"&oo@@++oo&&&&&&oo++oo&&&&&&&&&&&&&&&&&&&&&&&&&&oo..@@++oo&&oooo&",
"&oo++++++oo&&&&oo@@oo&&&&&&&&&&&&&&&&&&&&&&&&&&oo@@++oooooo..oo&",
"&oo++++++oo&&&&oo@@oo&&&&&&&&&&&&&&&&&&&&&&&&&&oo@@++oooooo..oo&",
"&&&oo++@@..oo&&oo@@oo&&&&&&&&&&&&&&&&&&&&&&&&oo..++..oooo..oooo&",
"&&&oo++@@..oo&&oo@@oo&&&&&&&&&&&&&&&&&&&&&&&&oo..++..oooo..oooo&",
"&&&oo..@@@@oo&&  @@++oo&&&&&&&&&&&&&&&&&&&&oo......oo&&oo..oo&&&",
"&&&oo..@@@@oo&&  @@++oo&&&&&&&&&&&&&&&&&&&&oo......oo&&oo..oo&&&",
"&&&&&oo@@@@..oo  @@@@oo&&&&&&&&&&&&&&&&&&&&oo....oo&&&&oo..oo&&&",
"&&&&&oo@@@@..oo  @@@@oo&&&&&&&&&&&&&&&&&&&&oo....oo&&&&oo..oo&&&",
"&&&&&oo@@@@++oooo@@@@oo&&&&&&&&&&&&&&&&&&&&oo++..oo&&&&&&oo..oo&",
"&&&&&oo@@@@++oooo@@@@oo&&&&&&&&&&&&&&&&&&&&oo++..oo&&&&&&oo..oo&",
"&&&&&oo@@++..oooo@@@@oo&&&&&&&&&&&&&&&&&&&&oo++++oo&&&&&&oo..oo&",
"&&&&&oo@@++..oooo@@@@oo&&&&&&&&&&&&&&&&&&&&oo++++oo&&&&&&oo..oo&",
"&&&oo..@@..oooo++@@++oo&&&&&&&&&&&&&&&&&&&&oo..@@++oo&&&&oo..oo&",
"&&&oo..@@..oooo++@@++oo&&&&&&&&&&&&&&&&&&&&oo..@@++oo&&&&oo..oo&",
"&&&oo++++..oo..@@++oo&&&&&&&&&&&&&&&&&&XXXXXXXX++@@..oo&&oo..  &",
"&&&oo++++..oo..@@++oo&&&&&&&&&&&&&&&&&&XXXXXXXX++@@..oo&&oo..  &",
"&&&oo..++oooo++@@..oo&&&&&&&&&&&&&&&&XX##%%%%$$  @@@@oooooo..  &",
"&&&oo..++oooo++@@..oo&&&&&&&&&&&&&&&&XX##%%%%$$  @@@@oooooo..  &",
"&&&&&oo++oo++oo@@oo&&&&&&&&&&&&&&&&&&  OO$$%%%%    @@..oo..oo  &",
"&&&&&oo++oo++oo@@oo&&&&&&&&&&&&&&&&&&  OO$$%%%%    @@..oo..oo  &",
"&&&&&oo++oo@@oo@@oo&&&&&&&&&&&&&&&&    OOOO%%%%OOXXXX++oo..oo&&&",
"&&&&&oo++oo@@oo@@oo&&&&&&&&&&&&&&&&    OOOO%%%%OOXXXX++oo..oo&&&",
"&&&&&&&oo..@@oo++oo&&&&&&&&&&&&&&&&    XXOO$$%%$$##OO..oooo  &&&",
"&&&&&&&oo..@@oo++oo&&&&&&&&&&&&&&&&    XXOO$$%%$$##OO..oooo  &&&",
"&&&&&&&oo++++  ++..oo&&&&&&&&&&&&&&  ooooOO##$$$$OO##  oooo  &&&",
"&&&&&&&oo++++  ++..oo&&&&&&&&&&&&&&  ooooOO##$$$$OO##  oooo  &&&",
"&&&&&oo++++oo  ++ooOOOOOO  &&&&&&      @@ooOO####OOOOXX  oooo&&&",
"&&&&&oo++++oo  ++ooOOOOOO  &&&&&&      @@ooOO####OOOOXX  oooo&&&",
"&&&&&oo..++    ++  $$%%%%OOOO&&oooo    ..@@oo$$OOOOXXXX    oo  &",
"&&&&&oo..++    ++  $$%%%%OOOO&&oooo    ..@@oo$$OOOOXXXX    oo  &",
"&&&  oooo..oo  OOOO%%%%%%$$  &&oo@@oo  oo@@ooooOO####OO    oo  &",
"&&&  oooo..oo  OOOO%%%%%%$$  &&oo@@oo  oo@@ooooOO####OO    oo  &",
"&  ##$$oo  OO%%%%$$$$%%##OO  &&  ..@@  ..++oo@@XX######OO      &",
"&  ##$$oo  OO%%%%$$$$%%##OO  &&  ..@@  ..++oo@@XX######OO      &",
"&    OO  OO##$$%%%%$$##OOOO  &&&&  ++  @@  oo@@OOXX          &&&",
"&    OO  OO##$$%%%%$$##OOOO  &&&&  ++  @@  oo@@OOXX          &&&",
"&&&&&&&    OO  OOOOOO####    &&&&  ..  ++  ..++XXXXXX      &&&&&",
"&&&&&&&    OO  OOOOOO####    &&&&  ..  ++  ..++XXXXXX      &&&&&",
"&&&&&&&      OOOOOO##OO    &&&&&&&&&&  ..  @@  XXXX    &&&&&&&&&",
"&&&&&&&      OOOOOO##OO    &&&&&&&&&&  ..  @@  XXXX    &&&&&&&&&",
"&&&&&&&&&&&&&&&OOOOOO    &&&&&&&&&&&&&&&&  ++  &&&&&&&&&&&&&&&&&",
"&&&&&&&&&&&&&&&OOOOOO    &&&&&&&&&&&&&&&&  ++  &&&&&&&&&&&&&&&&&",
"&&&&&&&&&&&&&&&&&&&&&&&&&&&&&&&&&&&&&&&&&&&oo  &&&&&&&&&&&&&&&&&",
"&&&&&&&&&&&&&&&&&&&&&&&&&&&&&&&&&&&&&&&&&&&oo  &&&&&&&&&&&&&&&&&",
"&&&&&&&&&&&&&&&&&&&&&&&&&&&&&&&&&&&&&&&&&&&&&&&&&&&&&&&&&&&&&&&&"
};
