/* XPM */
static char *result[] = {
/* columns rows colors chars-per-pixel */
"64 64 3 1 ",
"  c #BDE7EF",
". c white",
"X c None",
/* pixels */
"XXXXXXXXXXXXXXXXXXXXXXXXXXXXXXXXXXXXXXXXXXXXXXXXXXXXXXXXXXXXXXXX",
"XXXXXXXXXXXXXXXXXXXXXXXXXXXXXXXXXXXXXXXXXXXXXXXXXXXXXXXXXXXXXXXX",
"XXXXXXXXXXXXXXXXXXXXXXXXXXXXXXXXXXXXXXXXXXXXXXXXXXXXXXXXXXXXXXXX",
"XXXXXXXXXXXXXXXXXXXXXXXXXXXXXXXXXXXXXXXXXXXXXXXXXXXXXXXXXXXXXXXX",
"XXXXXXXXXXXXXXXXXXXXXXXXXXXXXXXXXXXXXXXXXXXXXXXXXXXXXXXXXXXXXXXX",
"XXXXXXXXXXXXXXXXXXXXXXXXXXXXXXXXXXXXXXXXXXXXXXXXXXXXXXXXXXXXXXXX",
"XXXXXXXXXXXXXXXXXXXXXXXXXXXXXXXXXXXXXXXXXXXXXXXXXXXXXXXXXXXXXXXX",
"XXXXXXXXXXXXXXXXXXXXXXXXXXXXXXXXXXXXXXXXXXXXXXXXXX    XXXXXXXXXX",
"XXXXXXXXXXXXXXXXXXXXXXXXXXXXXXXXXXXXXXXXXXXXXXXXXX    XXXXXXXXXX",
"XXXXXXXXXXXXXXXXXXXXXXXXXXXXXXXXXXXXXXXXXXXXXXXX  ..XX  XXXXXXXX",
"XXXXXXXXXXXXXXXXXXXXXXXXXXXXXXXXXXXXXXXXXXXXXXXX  ..XX  XXXXXXXX",
"XXXXXXXXXXXXXX    XXXXXXXXXXXXXXXXXXXXXXXXXXXXXX  XXXX  XXXXXXXX",
"XXXXXXXXXXXXXX    XXXXXXXXXXXXXXXXXXXXXXXXXXXXXX  XXXX  XXXXXXXX",
"XXXXXXXXXXXX  ..XX  XXXXXXXXXXXXXXXXXXXXXXXXXXXXXX    XXXXXXXXXX",
"XXXXXXXXXXXX  ..XX  XXXXXXXXXXXXXXXXXXXXXXXXXXXXXX    XXXXXXXXXX",
"XXXXXXXXXXXX  XXXX  XXXXXXXXXXXXXXXXXXXXXXXXXXXXXXXXXXXXXXXXXXXX",
"XXXXXXXXXXXX  XXXX  XXXXXXXXXXXXXXXXXXXXXXXXXXXXXXXXXXXXXXXXXXXX",
"XXXXXXXXXXXXXX    XXXXXXXXXXXXXXXXXXXXXXXXXX    XXXXXXXXXXXXXXXX",
"XXXXXXXXXXXXXX    XXXXXXXXXXXXXXXXXXXXXXXXXX    XXXXXXXXXXXXXXXX",
"XXXXXXXXXXXXXXXXXXXXXXXXXXXXXXXXXXXXXXXXXX  ..XX  XXXXXXXXXXXXXX",
"XXXXXXXXXXXXXXXXXXXXXXXXXXXXXXXXXXXXXXXXXX  ..XX  XXXXXXXXXXXXXX",
"XXXXXXXX    XXXXXXXXXXXXXXXXXXXXXXXXXXXXXX  XXXX  XXXXXXXXXXXXXX",
"XXXXXXXX    XXXXXXXXXXXXXXXXXXXXXXXXXXXXXX  XXXX  XXXXXXXXXXXXXX",
"XXXXXX  ..XX  XXXXXXXXXXXXXXXXXXXXXXXXXXXXXX    XXXXXXXXXXXXXXXX",
"XXXXXX  ..XX  XXXXXXXXXXXXXXXXXXXXXXXXXXXXXX    XXXXXXXXXXXXXXXX",
"XXXXXX  XXXX  XXXXXXXXXXXXXXXXXXXXXXXXXXXXXXXXXXXXXXXX..  XXXXXX",
"XXXXXX  XXXX  XXXXXXXXXXXXXXXXXXXXXXXXXXXXXXXXXXXXXXXX..  XXXXXX",
"XXXXXXXX    XXXXXXXXXXXXXXXXXXXXXXXXXXXXXXXXXXXXXXXXXX    XXXXXX",
"XXXXXXXX    XXXXXXXXXXXXXXXXXXXXXXXXXXXXXXXXXXXXXXXXXX    XXXXXX",
"XXXXXXXXXXXXXXXXXX..  XXXXXXXXXXXXXXXXXXXXXXXXXXXXXXXXXXXXXXXXXX",
"XXXXXXXXXXXXXXXXXX..  XXXXXXXXXXXXXXXXXXXXXXXXXXXXXXXXXXXXXXXXXX",
"XXXXXXXXXXXXXXXXXX    XXXXXXXXXXXXXXXXXXXXXXXXXXXXXXXXXXXXXXXXXX",
"XXXXXXXXXXXXXXXXXX    XXXXXXXXXXXXXXXXXXXXXXXXXXXXXXXXXXXXXXXXXX",
"XXXXXXXXXXXXXXXXXXXXXXXXXXXXXXXXXXXXXXXXXXXXXXXXXXXXXXXXXXXXXXXX",
"XXXXXXXXXXXXXXXXXXXXXXXXXXXXXXXXXXXXXXXXXXXXXXXXXXXXXXXXXXXXXXXX",
"XXXXXXXXXXXXXXXXXXXXXXXXXXXXXXXXXXXXXXXXXXXXXXXXXXXX    XXXXXXXX",
"XXXXXXXXXXXXXXXXXXXXXXXXXXXXXXXXXXXXXXXXXXXXXXXXXXXX    XXXXXXXX",
"XXXXXXXXXXXXXXXXXXXXXXXXXXXXXXXXXXXXXXXXXXXXXXXXXX  XXXX  XXXXXX",
"XXXXXXXXXXXXXXXXXXXXXXXXXXXXXXXXXXXXXXXXXXXXXXXXXX  XXXX  XXXXXX",
"XXXXXXXXXXXXXXXX    XXXXXXXXXXXXXXXXXXXXXXXXXXXX  XX..XXXX  XXXX",
"XXXXXXXXXXXXXXXX    XXXXXXXXXXXXXXXXXXXXXXXXXXXX  XX..XXXX  XXXX",
"XXXXXXXXXXXXXX  XXXX  XXXXXXXXXXXXXXXXXXXXXXXXXX  XXXXXXXX  XXXX",
"XXXXXXXXXXXXXX  XXXX  XXXXXXXXXXXXXXXXXXXXXXXXXX  XXXXXXXX  XXXX",
"XXXXXXXXXXXX  XX..XXXX  XXXXXXXXXXXXXXXXXXXXXXXXXX  XXXX  XXXXXX",
"XXXXXXXXXXXX  XX..XXXX  XXXXXXXXXXXXXXXXXXXXXXXXXX  XXXX  XXXXXX",
"XXXXXXXXXXXX  XXXXXXXX  XXXXXXXXXXXXXXXXXXXX    XXXX    XXXXXXXX",
"XXXXXXXXXXXX  XXXXXXXX  XXXXXXXXXXXXXXXXXXXX    XXXX    XXXXXXXX",
"XXXXXXXXXXXXXX  XXXX  XXXXXXXXXXXXXXXXXXXX  ..XX  XXXXXXXXXXXXXX",
"XXXXXXXXXXXXXX  XXXX  XXXXXXXXXXXXXXXXXXXX  ..XX  XXXXXXXXXXXXXX",
"XXXXXXXX    XXXX    XXXXXXXXXXXXXXXXXXXXXX  XXXX  XXXXXXXXXXXXXX",
"XXXXXXXX    XXXX    XXXXXXXXXXXXXXXXXXXXXX  XXXX  XXXXXXXXXXXXXX",
"XXXXXX  ..XX  XXXXXXXXXXXXXXXXXXXXXXXXXXXXXX    XXXXXX    XXXXXX",
"XXXXXX  ..XX  XXXXXXXXXXXXXXXXXXXXXXXXXXXXXX    XXXXXX    XXXXXX",
"XXXXXX  XXXX  XXXXXXXXXXXXXXXXXXXXXXXXXXXXXXXXXXXXXX  ..XX  XXXX",
"XXXXXX  XXXX  XXXXXXXXXXXXXXXXXXXXXXXXXXXXXXXXXXXXXX  ..XX  XXXX",
"XXXXXXXX    XXXXXX    XXXXXXXXXXXXXXXXXXXXXXXXXXXXXX  XXXX  XXXX",
"XXXXXXXX    XXXXXX    XXXXXXXXXXXXXXXXXXXXXXXXXXXXXX  XXXX  XXXX",
"XXXXXXXXXXXXXXXX  ..XX  XXXXXXXXXXXXXXXXXXXXXXXXXXXXXX    XXXXXX",
"XXXXXXXXXXXXXXXX  ..XX  XXXXXXXXXXXXXXXXXXXXXXXXXXXXXX    XXXXXX",
"XXXXXXXXXXXXXXXX  XXXX  XXXXXXXXXXXXXXXXXXXXXXXXXXXXXXXXXXXXXXXX",
"XXXXXXXXXXXXXXXX  XXXX  XXXXXXXXXXXXXXXXXXXXXXXXXXXXXXXXXXXXXXXX",
"XXXXXXXXXXXXXXXXXX    XXXXXXXXXXXXXXXXXXXXXXXXXXXXXXXXXXXXXXXXXX",
"XXXXXXXXXXXXXXXXXX    XXXXXXXXXXXXXXXXXXXXXXXXXXXXXXXXXXXXXXXXXX",
"XXXXXXXXXXXXXXXXXXXXXXXXXXXXXXXXXXXXXXXXXXXXXXXXXXXXXXXXXXXXXXXX"
};
