/* XPM */
static char *result[] = {
/* columns rows colors chars-per-pixel */
"64 64 3 1 ",
"  c #BDE7EF",
". c white",
"X c None",
/* pixels */
"XXXXXXXXXXXXXXXXXXXXXXXXXXXXXXXXXXXXXXXXXXXXXXXXXXXXXXXXXXXXXXXX",
"XXXXXXXXXXXXXXXXXXXXXXXXXXXXXXXXXXXXXXXXXXXXXXXXXXXXXXXXXXXXXXXX",
"XXXXXXXXXXXXXXXXXXXXXXXXXXXXXXXXXXXXXXXXXXXXXXXXXXXXXXXXXXXXXXXX",
"XXXXXXXXXXXXXXXXXXXXXXXXXXXXXXXXXXXXXXXXXXXXXXXXXXXXXXXXXXXXXXXX",
"XXXXXXXXXXXXXXXXXXXXXXXXXXXXXXXXXXXXXXXXXXXXXXXXX    XXXXXXXXXXX",
"XXXXXXXXXXXXXXXXXXXXXXXXXXXXXXXXXXXXXXXXXXXXXXXXX    XXXXXXXXXXX",
"XXXXXXXXXXXXX    XXXXXXXXXXXXXXXXXXXXXXXXXXXXXX  XXXX  XXXXXXXXX",
"XXXXXXXXXXXXX    XXXXXXXXXXXXXXXXXXXXXXXXXXXXXX  XXXX  XXXXXXXXX",
"XXXXXXXXXXX  XXXX  XXXXXXXXXXXXXXXXXXXXXXXXXX  XX..XXXX  XXXXXXX",
"XXXXXXXXXXX  XXXX  XXXXXXXXXXXXXXXXXXXXXXXXXX  XX..XXXX  XXXXXXX",
"XXXXXXXXX  XX..XXXX  XXXXXXXXXXXXXXXXXXXXXXXX  XXXXXXXX  XXXXXXX",
"XXXXXXXXX  XX..XXXX  XXXXXXXXXXXXXXXXXXXXXXXX  XXXXXXXX  XXXXXXX",
"XXXXXXXXX  XXXXXXXX  XXXXXXXXXXXXXXXXXXXXXXXXXX  XXXX  XXXXXXXXX",
"XXXXXXXXX  XXXXXXXX  XXXXXXXXXXXXXXXXXXXXXXXXXX  XXXX  XXXXXXXXX",
"XXXXXXXXXXX  XXXX  XXXXXXXXXXXXXXXXXXXXXX    XXXX    XXXXXXXXXXX",
"XXXXXXXXXXX  XXXX  XXXXXXXXXXXXXXXXXXXXXX    XXXX    XXXXXXXXXXX",
"XXXXXXXXXXXXX    XXXXXXXXXXXXXXXXXXXXXX  ..XX  XXXXXXXXXXXXXXXXX",
"XXXXXXXXXXXXX    XXXXXXXXXXXXXXXXXXXXXX  ..XX  XXXXXXXXXXXXXXXXX",
"XXXXXXXXXXXXXXXXXXXXXXXXXXXXXXXXXXXXXXX  XXXX  XXXXXXXXXXXXXXXXX",
"XXXXXXXXXXXXXXXXXXXXXXXXXXXXXXXXXXXXXXX  XXXX  XXXXXXXXXXXXXXXXX",
"XXXXXXXXXXXXXXXXXXXXXXXXXXXXXXXXXXXXXXXXX    XXXXXX    XXXXXXXXX",
"XXXXXXXXXXXXXXXXXXXXXXXXXXXXXXXXXXXXXXXXX    XXXXXX    XXXXXXXXX",
"XXXXXXXXXXXXXXXXXXXXXXXXXXXXXXXXXXXXXXXXXXXXXXXXX  ..XX  XXXXXXX",
"XXXXXXXXXXXXXXXXXXXXXXXXXXXXXXXXXXXXXXXXXXXXXXXXX  ..XX  XXXXXXX",
"XXXXXXXXXXXXXXXXXXXXXXXXXXXXXXXXXXXXXXXXXXXXXXXXX  XXXX  XXXXXXX",
"XXXXXXXXXXXXXXXXXXXXXXXXXXXXXXXXXXXXXXXXXXXXXXXXX  XXXX  XXXXXXX",
"XXXXXXXXXXXXXXXXXXXXXXXXXXXXXXXXXXXXXXXXXXXXXXXXXXX    XXXXXXXXX",
"XXXXXXXXXXXXXXXXXXXXXXXXXXXXXXXXXXXXXXXXXXXXXXXXXXX    XXXXXXXXX",
"XXXXXXXXXXXXXXXXXXXXXXXXXXXXXXXXXXXXXXXXXXXXXXXXXXXXXXXXXXXXXXXX",
"XXXXXXXXXXXXXXXXXXXXXXXXXXXXXXXXXXXXXXXXXXXXXXXXXXXXXXXXXXXXXXXX",
"XXXXXXXXXXXXXXXXXXXXXXXXXXXXXXXXXXXXXXXXXXXXXXXXXXXXXXXXXXXXXXXX",
"XXXXXXXXXXXXXXXXXXXXXXXXXXXXXXXXXXXXXXXXXXXXXXXXXXXXXXXXXXXXXXXX",
"XXXXXXXXXXXXXXXXXXXXXXXXXXXXXXXXXXXXXXXXXXXXXXXXXXXXXXXXXXXXXXXX",
"XXXXXXXXXXXXXXXXXXXXXXXXXXXXXXXXXXXXXXXXXXXXXXXXXXXXXXXXXXXXXXXX",
"XXXXXXXXXXXXXXXXXXXXXXXXXXXXXXXXXXXXXXXXXXXXXXXXXXXXXXXXXXXXXXXX",
"XXXXXXXXXXXXXXXXXXXXXXXXXXXXXXXXXXXXXXXXXXXXXXXXXXXXXXXXXXXXXXXX",
"XXXXXXXXXXXXXXX    XXXXXXXXXXXXXXXXXXXXXXXXXXXXXXXXXXXXXXXXXXXXX",
"XXXXXXXXXXXXXXX    XXXXXXXXXXXXXXXXXXXXXXXXXXXXXXXXXXXXXXXXXXXXX",
"XXXXXXXXXXXXX  XXXX  XXXXXXXXXXXXXXXXXX    XXXXXXXXXXXXXXXXXXXXX",
"XXXXXXXXXXXXX  XXXX  XXXXXXXXXXXXXXXXXX    XXXXXXXXXXXXXXXXXXXXX",
"XXXXXXXXXXX  XX..XXXX  XXXXXXXXXXXXXX  XXXX  XXXXXXXXXXXXXXXXXXX",
"XXXXXXXXXXX  XX..XXXX  XXXXXXXXXXXXXX  XXXX  XXXXXXXXXXXXXXXXXXX",
"XXXXXXXXXXX  XXXXXXXX  XXXXXXXXXXXX  XX..XXXX  XXXXXXXXXXXXXXXXX",
"XXXXXXXXXXX  XXXXXXXX  XXXXXXXXXXXX  XX..XXXX  XXXXXXXXXXXXXXXXX",
"XXXXXXXXXXXXX  XXXX  XXXXXXXXXXXXXX  XXXXXXXX  XXXXXXXXXXXXXXXXX",
"XXXXXXXXXXXXX  XXXX  XXXXXXXXXXXXXX  XXXXXXXX  XXXXXXXXXXXXXXXXX",
"XXXXXXXXXXXXXXX    XXXXXXXXXXXXXXXXXX  XXXX  XXXXXXXXXXXXXXXXXXX",
"XXXXXXXXXXXXXXX    XXXXXXXXXXXXXXXXXX  XXXX  XXXXXXXXXXXXXXXXXXX",
"XXXXXXXXXXXXXXXXXXXXXXXXXXXXXXXXXXXXXXX    XXXXXXXX    XXXXXXXXX",
"XXXXXXXXXXXXXXXXXXXXXXXXXXXXXXXXXXXXXXX    XXXXXXXX    XXXXXXXXX",
"XXXXXXXXXXXXXXXXXXXXXXXXXXXXXXXXXXXXXXXXXXXXXXXXX  ..XX  XXXXXXX",
"XXXXXXXXXXXXXXXXXXXXXXXXXXXXXXXXXXXXXXXXXXXXXXXXX  ..XX  XXXXXXX",
"XXXXXXXXXXXXXXXXXXXXXXXXXXXXXXXXXXXXXXXXXXXXXXXXX  XXXX  XXXXXXX",
"XXXXXXXXXXXXXXXXXXXXXXXXXXXXXXXXXXXXXXXXXXXXXXXXX  XXXX  XXXXXXX",
"XXXXXXXXXXXXXXXXXXXXXXXXXXXXXXXXXXXXXXXXXXXXXXXXXXX    XXXXXXXXX",
"XXXXXXXXXXXXXXXXXXXXXXXXXXXXXXXXXXXXXXXXXXXXXXXXXXX    XXXXXXXXX",
"XXXXXXXXXXXXXXXXXXXXXXXXXXXXXXXXXXXXXXXXXXXXXXXXXXXXXXXXXXXXXXXX",
"XXXXXXXXXXXXXXXXXXXXXXXXXXXXXXXXXXXXXXXXXXXXXXXXXXXXXXXXXXXXXXXX",
"XXXXXXXXXXXXXXXXXXXXXXXXXXXXXXXXXXXXXXXXXXXXXXXXXXXXXXXXXXXXXXXX",
"XXXXXXXXXXXXXXXXXXXXXXXXXXXXXXXXXXXXXXXXXXXXXXXXXXXXXXXXXXXXXXXX",
"XXXXXXXXXXXXXXXXXXXXXXXXXXXXXXXXXXXXXXXXXXXXXXXXXXXXXXXXXXXXXXXX",
"XXXXXXXXXXXXXXXXXXXXXXXXXXXXXXXXXXXXXXXXXXXXXXXXXXXXXXXXXXXXXXXX",
"XXXXXXXXXXXXXXXXXXXXXXXXXXXXXXXXXXXXXXXXXXXXXXXXXXXXXXXXXXXXXXXX",
"XXXXXXXXXXXXXXXXXXXXXXXXXXXXXXXXXXXXXXXXXXXXXXXXXXXXXXXXXXXXXXXX"
};
