/* XPM */
static char *result[] = {
/* columns rows colors chars-per-pixel */
"64 64 12 1 ",
"  c #293C42",
". c #7B5542",
"X c #52556B",
"o c #63596B",
"O c #D67D73",
"+ c #636D94",
"@ c #847D84",
"# c #5A929C",
"$ c #BDC7B5",
"% c #FFAEC6",
"& c #FFD3D6",
"* c None",
/* pixels */
"****************************************************************",
"****************************************************************",
"****************************************************************",
"****************************************************************",
"****************************************************************",
"****************************************************************",
"****************************************************************",
"****************************************************************",
"****************************************************************",
"****************************************************************",
"****************************************************************",
"****************************************************************",
"****************************************************************",
"****************************************************************",
"****************************************************************",
"****************************************************************",
"****************************************************************",
"****************************************************************",
"****************************************************************",
"****************************************************************",
"****************************************************************",
"****************************************************************",
"****************************************************************",
"****************************************************************",
"****************************************************************",
"****************************************************************",
"********************      XXXXXXXXXXXX      ********************",
"********************      XXXXXXXXXXXX      ********************",
"********************      XXXXXXXXXXXX      ********************",
"**************   XXX+++##################+++XXX   **************",
"**************   XXX+++##################+++XXX   **************",
"**************   XXX+++##################+++XXX   **************",
"***********   +++$$$######$$$$$$$$$$$$######$$$+++   ***********",
"***********   +++$$$######$$$$$$$$$$$$######$$$+++   ***********",
"***********   +++$$$######$$$$$$$$$$$$######$$$+++   ***********",
"***********      @@@$$$$$$@@@XXXXXX@@@$$$$$$@@@      ***********",
"***********      @@@$$$$$$@@@XXXXXX@@@$$$$$$@@@      ***********",
"***********      @@@$$$$$$@@@XXXXXX@@@$$$$$$@@@      ***********",
"***********                  ......                  ***********",
"***********                  ......                  ***********",
"***********                  ......                  ***********",
"**************      XXXXXX...&&&%%%...XXXXXX      **************",
"**************      XXXXXX...&&&%%%...XXXXXX      **************",
"**************      XXXXXX...&&&%%%...XXXXXX      **************",
"**************         XXX   %%%OOO   XXX         **************",
"**************         XXX   %%%OOO   XXX         **************",
"**************         XXX   %%%OOO   XXX         **************",
"***********   +++$$$@@@                  @@@$$$+++   ***********",
"***********   +++$$$@@@                  @@@$$$+++   ***********",
"***********   +++$$$@@@                  @@@$$$+++   ***********",
"***********   XXXXXX$$$$$$@@@XXXXXX@@@$$$$$$XXXXXX   ***********",
"***********   XXXXXX$$$$$$@@@XXXXXX@@@$$$$$$XXXXXX   ***********",
"***********   XXXXXX$$$$$$@@@XXXXXX@@@$$$$$$XXXXXX   ***********",
"**************   XXX+++XXX@@@$$$$$$@@@XXX+++XXX   **************",
"**************   XXX+++XXX@@@$$$$$$@@@XXX+++XXX   **************",
"**************   XXX+++XXX@@@$$$$$$@@@XXX+++XXX   **************",
"*****************   XXX++++++XXXXXX++++++XXX   *****************",
"*****************   XXX++++++XXXXXX++++++XXX   *****************",
"*****************   XXX++++++XXXXXX++++++XXX   *****************",
"***********************                  ***********************",
"***********************                  ***********************",
"***********************                  ***********************",
"****************************************************************",
"****************************************************************"
};
