/* XPM */
static char *result[] = {
/* columns rows colors chars-per-pixel */
"64 64 15 1 ",
"  c #293C42",
". c #295D52",
"X c #7B5542",
"o c #52556B",
"O c #DE6139",
"+ c #9C5142",
"@ c #FF8629",
"# c #39618C",
"$ c #636D94",
"% c #847D84",
"& c #4A8294",
"* c #5A929C",
"= c #5A9EB5",
"- c #BDC7B5",
"; c None",
/* pixels */
";;;;;;;;;;;;;;;;;;;;;;;;;;;;;;;;;;;;;;;;;;;;;;;;;;;;;;;;;;;;;;;;",
";;;;;;;;;;;;;;;;;;;;;;;;;;;;;;;;;;;;;;;;;;;;;;;;;;;;;;;;;;;;;;;;",
";;;;;;;;;;;;;;;;;;;;;;;;;;;;;;;;;;;;;;;;;;;;;;;;;;;;;;;;;;;;;;;;",
";;;;;;;;;;;;;;;;;;;;;;;;;;;;;;;;;;;;;;;;;;;;;;;;;;;;;;;;;;;;;;;;",
";;;;;;;;;;;;;;;;;;;;;;;;;;;;;;;;;;;;;;;;;;;;;;;;;;;;;;;;;;;;;;;;",
";;;;;;;;;;;;;;;;;;;;;;;;;;;;;;;;;;;;;;;;;;;;;;;;;;;;;;;;;;;;;;;;",
";;;;;;;;;;;;;;;;;;;;;;;;;;;;;;;;;;;;;;;;;;;;;;;;;;;;;;;;;;;;;;;;",
";;;;;;;;;;;;;;;;;;;;;;;;;;;;;;;;;;;;;;;;;;;;;;;;;;;;;;;;;;;;;;;;",
";;;;;;;;;;;;;;;;;;;;;;;;;;;;;;;;;;;;;;;;;;;;;;;;;;;;;;;;;;;;;;;;",
";;;;;;;;;;;;;;;;;;;;;;;;;;;;;;;;;;;;;;;;;;;;;;;;;;;;;;;;;;;;;;;;",
";;;;;;;;;;;;;;;;;;;;;;;;;;;;;;;;;;;;;;;;;;;;;;;;;;;;;;;;;;;;;;;;",
";;;;;;;;;;;;;;;;;;;;;;;;;;;;;;;;;;;;;;;;;;;;;;;;;;;;;;;;;;;;;;;;",
";;;;;;;;;;;;;;;;;;;;;;;;;;;;;;;;;;;;;;;;;;;;;;;;;;;;;;;;;;;;;;;;",
";;;;;;;;;;;;;;;;;;;;;;;;;;;;;;;;;;;;;;;;;;;;;;;;;;;;;;;;;;;;;;;;",
";;;;;;;;;;;;;;;;;;;;;;;;;;;;;;;;;;;;;;;;;;;;;;;;;;;;;;;;;;;;;;;;",
";;;;;;;;;;;;;;;;;;;;;;;;;;;;;;;;;;;;;;;;;;;;;;;;;;;;;;;;;;;;;;;;",
";;;;;;;;;;;;;;;;;;;;;;;;;;;;;;;;;;;;;;;;;;;;;;;;;;;;;;;;;;;;;;;;",
";;;;;;;;;;;;;;;;;;;;;;;;;;;;;;;;;;;;;;;;;;;;;;;;;;;;;;;;;;;;;;;;",
";;;;;;;;;;;;;;;;;;;;;;;;;;;;;;;;;;;;;;;;;;;;;;;;;;;;;;;;;;;;;;;;",
";;;;;;;;;;;;;;;;;;;;;;;;;;;;;;;;;;;;;;;;;;;;;;;;;;;;;;;;;;;;;;;;",
";;;;;;;;;;;;;;;;;;;;;;;;;;;;;;;;;;;;;;;;;;;;;;;;;;;;;;;;;;;;;;;;",
";;;;;;;;;;;;;;;;;;;;;;;;;;;;;;;;;;;;;;;;;;;;;;;;;;;;;;;;;;;;;;;;",
";;;;;;;;;;;;;;;;;;;;;;;;;;;;;;;;;;;;;;;;;;;;;;;;;;;;;;;;;;;;;;;;",
";;;;;;;;;;;;;;;;;;;;;;;;;;;;;;;;;;;;;;;;;;;;;;;;;;;;;;;;;;;;;;;;",
";;;;;;;;;;;;;;;;;;;;;;;;;;;;;;;;;;;;;;;;;;;;;;;;;;;;;;;;;;;;;;;;",
";;;;;;;;;;;;;;;;;;;;;;;;;;;;;;;;;;;;;;;;;;;;;;;;;;;;;;;;;;;;;;;;",
";;;;;;;;;;;;;;;;;;;;;;;;;;;;;;;;;;;;;;;;;;;;;;;;;;;;;;;;;;;;;;;;",
";;;;;;;;;;;;;;;;;;;;;;;;;;;;;;;;;;;;;;;;;;;;;;;;;;;;;;;;;;;;;;;;",
";;;;;;;;;;;;;;;;;;;;;;;;;;;;;;;;;;;;;;;;;;;;;;;;;;;;;;;;;;;;;;;;",
";;;;;;;;;;;;;;;;;;;;;;;;;;;;;;;;;;;;;;;;;;;;;;;;;;;;;;;;;;;;;;;;",
";;;;;;;;;;;;;;;;;;;;;;;;;;;;;;;;;;;;;;;;;;;;;;;;;;;;;;;;;;;;;;;;",
";;;;;;;;;;;;;;;;;;;;;;;;;;;;;;;;;;;;;;;;;;;;;;;;;;;;;;;;;;;;;;;;",
";;;;;;;;;;;;;;;;;;;;;;;;;oooooooooooo;;;;;;;;;;;;;;;;;;;;;;;;;;;",
";;;;;;;;;;;;;;;;;;;;;;;;;oooooooooooo;;;;;;;;;;;;;;;;;;;;;;;;;;;",
";;;;;;;;;;;;;;;;;;;;;;;;;oooooooooooo;;;;;;;;;;;;;;;;;;;;;;;;;;;",
";;;;;;;;;;;;;;;;;;;oooooo$$$******$$$oooooo;;;;;;;;;;;;;;;;;;;;;",
";;;;;;;;;;;;;;;;;;;oooooo$$$******$$$oooooo;;;;;;;;;;;;;;;;;;;;;",
";;;;;;;;;;;;;;;;;;;oooooo$$$******$$$oooooo;;;;;;;;;;;;;;;;;;;;;",
";;;;;;;;;;;;;;;;ooo$$$***$$$******$$$***$$$ooo;;;;;;;;;;;;;;;;;;",
";;;;;;;;;;;;;;;;ooo$$$***$$$******$$$***$$$ooo;;;;;;;;;;;;;;;;;;",
";;;;;;;;;;;;;;;;ooo$$$***$$$******$$$***$$$ooo;;;;;;;;;;;;;;;;;;",
";;;;;;;;;;;;;   ******$$$***$$$$$$***$$$******   ;;;;;;;;;;;;;;;",
";;;;;;;;;;;;;   ******$$$***$$$$$$***$$$******   ;;;;;;;;;;;;;;;",
";;;;;;;;;;;;;   ******$$$***$$$$$$***$$$******   ;;;;;;;;;;;;;;;",
";;;;;;;;;;;  ooo$$$$$$***$$$$$$$$$$$$***$$$$$$ooo   ;;;;;;;;;;;;",
";;;;;;;;;;;  ooo$$$$$$***$$$$$$$$$$$$***$$$$$$ooo   ;;;;;;;;;;;;",
";;;;;;;;;;;  ooo$$$$$$***$$$$$$$$$$$$***$$$$$$ooo   ;;;;;;;;;;;;",
";;;;;;;;;;;oo---%%%$$$$$$------------$$$$$$%%%---ooo;;;;;;;;;;;;",
";;;;;;;;;;;oo---%%%$$$$$$------------$$$$$$%%%---ooo;;;;;;;;;;;;",
";;;;;;;;;;;oo---%%%$$$$$$------------$$$$$$%%%---ooo;;;;;;;;;;;;",
";;;;;;;;;;;  ooo---------%%%$$$$$$%%%---------ooo   ;;;;;;;;;;;;",
";;;;;;;;;;;  ooo---------%%%$$$$$$%%%---------ooo   ;;;;;;;;;;;;",
";;;;;;;;;;;  ooo---------%%%$$$$$$%%%---------ooo   ;;;;;;;;;;;;",
";;;;;;;;;;;;;;   ooo$$$oooooo$$$$$$oooooo$$$ooo   ;;;;;;;;;;;;;;",
";;;;;;;;;;;;;;   ooo$$$oooooo$$$$$$oooooo$$$ooo   ;;;;;;;;;;;;;;",
";;;;;;;;;;;;;;   ooo$$$oooooo$$$$$$oooooo$$$ooo   ;;;;;;;;;;;;;;",
";;;;;;;;;;;;;;;;;   ooo$$$oooooooooooo$$$ooo   ;;;;;;;;;;;;;;;;;",
";;;;;;;;;;;;;;;;;   ooo$$$oooooooooooo$$$ooo   ;;;;;;;;;;;;;;;;;",
";;;;;;;;;;;;;;;;;   ooo$$$oooooooooooo$$$ooo   ;;;;;;;;;;;;;;;;;",
";;;;;;;;;;;;;;;;;;;;                        ;;;;;;;;;;;;;;;;;;;;",
";;;;;;;;;;;;;;;;;;;;                        ;;;;;;;;;;;;;;;;;;;;",
";;;;;;;;;;;;;;;;;;;;                        ;;;;;;;;;;;;;;;;;;;;",
";;;;;;;;;;;;;;;;;;;;;;;;;;;;;;;;;;;;;;;;;;;;;;;;;;;;;;;;;;;;;;;;",
";;;;;;;;;;;;;;;;;;;;;;;;;;;;;;;;;;;;;;;;;;;;;;;;;;;;;;;;;;;;;;;;"
};
