/* XPM */
static char *result[] = {
/* columns rows colors chars-per-pixel */
"64 64 8 1 ",
"  c #293C42",
". c #52556B",
"X c #636D94",
"o c #847D84",
"O c #5A929C",
"+ c #9CAEAD",
"@ c #BDC7B5",
"# c None",
/* pixels */
"################################################################",
"################################################################",
"################################################################",
"################################################################",
"################################################################",
"################################################################",
"################################################################",
"################################################################",
"################################################################",
"################################################################",
"################################################################",
"################################################################",
"################################################################",
"################################################################",
"################################################################",
"################################################################",
"################################################################",
"################################################################",
"################################################################",
"################################################################",
"################################################################",
"#####################  ................  #######################",
"#####################  ................  #######################",
"#################  ....XXOOOOXXXXOOOOXX....  ###################",
"#################  ....XXOOOOXXXXOOOOXX....  ###################",
"#############  ....XXOOXX++++OOOO++++XXOOXX....  ###############",
"#############  ....XXOOXX++++OOOO++++XXOOXX....  ###############",
"###########  ..XX++++OOOO++++OOOO++++OOOO++++XX..  #############",
"###########  ..XX++++OOOO++++OOOO++++OOOO++++XX..  #############",
"#########  XXOOOO++++XX++++OOXXXXOO++++XX++++OOOOXX  ###########",
"#########  XXOOOO++++XX++++OOXXXXOO++++XX++++OOOOXX  ###########",
"#######  ..XXOOOOOOXXXX++++XXXXXXXX++++XXXXOOOOOOXX..  #########",
"#######  ..XXOOOOOOXXXX++++XXXXXXXX++++XXXXOOOOOOXX..  #########",
"#####    ....XXOOXXXXOOOOOOXXXXXXXXOOOOOOXXXXOOXX....    #######",
"#####    ....XXOOXXXXOOOOOOXXXXXXXXOOOOOOXXXXOOXX....    #######",
"###    ....XXXXXXXXXXOOOOXXXXXXXXXXXXOOOOXXXXXXXXXX....    #####",
"###    ....XXXXXXXXXXOOOOXXXXXXXXXXXXOOOOXXXXXXXXXX....    #####",
"###  ..XX@@@@ooXXXXXXXXXXoo@@@@@@@@ooXXXXXXXXXXoo@@@@XX..  #####",
"###  ..XX@@@@ooXXXXXXXXXXoo@@@@@@@@ooXXXXXXXXXXoo@@@@XX..  #####",
"###    @@....@@ooXXXXXX@@@@........@@@@XXXXXXoo@@....@@    #####",
"###    @@....@@ooXXXXXX@@@@........@@@@XXXXXXoo@@....@@    #####",
"#####    ......@@@@@@@@oo..XXXXXXXX..oo@@@@@@@@......    #######",
"#####    ......@@@@@@@@oo..XXXXXXXX..oo@@@@@@@@......    #######",
"#######    ....XXXX......XXXXXXXXXXXX......XXXX....    #########",
"#######    ....XXXX......XXXXXXXXXXXX......XXXX....    #########",
"###########  ....XXXX....XXXXXXXXXXXX....XXXX....    ###########",
"###########  ....XXXX....XXXXXXXXXXXX....XXXX....    ###########",
"#############    ..XXXX....XXXXXXXX....XXXX..    ###############",
"#############    ..XXXX....XXXXXXXX....XXXX..    ###############",
"###############      ....................      #################",
"###############      ....................      #################",
"###################                        #####################",
"###################                        #####################",
"################################################################",
"################################################################",
"################################################################",
"################################################################",
"################################################################",
"################################################################",
"################################################################",
"################################################################",
"################################################################",
"################################################################",
"################################################################"
};
