/* XPM */
static char *result[] = {
/* columns rows colors chars-per-pixel */
"64 64 11 1 ",
"  c #293C42",
". c #7B5542",
"X c #52556B",
"o c #D67D73",
"O c #636D94",
"+ c #847D84",
"@ c #5A929C",
"# c #BDC7B5",
"$ c #FFAEC6",
"% c #FFD3D6",
"& c None",
/* pixels */
"&&&&&&&&&&&&&&&&&&&&&&&&&&&&&&&&&&&&&&&&&&&&&&&&&&&&&&&&&&&&&&&&",
"&&&&&&&&&&&&&&&&&&&&&&&&&&&&&&&&&&&&&&&&&&&&&&&&&&&&&&&&&&&&&&&&",
"&&&&&&&&&&&&&&&&&&&&&&&&&&&&&&&&&&&&&&&&&&&&&&&&&&&&&&&&&&&&&&&&",
"&&&&&&&&&&&&&&&&&&&&&&&&&&&&&&&&&&&&&&&&&&&&&&&&&&&&&&&&&&&&&&&&",
"&&&&&&&&&&&&&&&&&&&&&&&&&&&&&&&&&&&&&&&&&&&&&&&&&&&&&&&&&&&&&&&&",
"&&&&&&&&&&&&&&&&&&&&&&&&&&&&&&&&&&&&&&&&&&&&&&&&&&&&&&&&&&&&&&&&",
"&&&&&&&&&&&&&&&&&&&&&&&&&&&&&&&&&&&&&&&&&&&&&&&&&&&&&&&&&&&&&&&&",
"&&&&&&&&&&&&&&&&&&&&&&&&&&&&&&&&&&&&&&&&&&&&&&&&&&&&&&&&&&&&&&&&",
"&&&&&&&&&&&&&&&&&&&&&&&&&&&&&&&&&&&&&&&&&&&&&&&&&&&&&&&&&&&&&&&&",
"&&&&&&&&&&&&&&&&&&&&&&&&&&&&&&&&&&&&&&&&&&&&&&&&&&&&&&&&&&&&&&&&",
"&&&&&&&&&&&&&&&&&&&&&&&&&&&&&&&&&&&&&&&&&&&&&&&&&&&&&&&&&&&&&&&&",
"&&&&&&&&&&&&&&&&&&&&&&&&&&&&&&&&&&&&&&&&&&&&&&&&&&&&&&&&&&&&&&&&",
"&&&&&&&&&&&&&&&&&&&&&&&&&&&&&&&&&&&&&&&&&&&&&&&&&&&&&&&&&&&&&&&&",
"&&&&&&&&&&&&&&&&&&&&&&  XXXXXXXXXXXXXXXX  &&&&&&&&&&&&&&&&&&&&&&",
"&&&&&&&&&&&&&&&&&&&&&&  XXXXXXXXXXXXXXXX  &&&&&&&&&&&&&&&&&&&&&&",
"&&&&&&&&&&&&&&  XXXXOO@@OO@@@@OOOO@@@@OO@@OOXXXX  &&&&&&&&&&&&&&",
"&&&&&&&&&&&&&&  XXXXOO@@OO@@@@OOOO@@@@OO@@OOXXXX  &&&&&&&&&&&&&&",
"&&&&&&&&  XXOO@@@@@@OOOO@@@@OOOOOOOO@@@@OOOO@@@@@@OOXX  &&&&&&&&",
"&&&&&&&&  XXOO@@@@@@OOOO@@@@OOOOOOOO@@@@OOOO@@@@@@OOXX  &&&&&&&&",
"&&&&  XXOO####++OOOOOOOOOO++########++OOOOOOOOOO++####OOXX  &&&&",
"&&&&  XXOO####++OOOOOOOOOO++########++OOOOOOOOOO++####OOXX  &&&&",
"&&&&    ##XXXX##++OOOOOO####XXXXXXXX####OOOOOO++##XXXX##    &&&&",
"&&&&    ##XXXX##++OOOOOO####XXXXXXXX####OOOOOO++##XXXX##    &&&&",
"&&&&          XX########++XX        XX++########XX          &&&&",
"&&&&          XX########++XX        XX++########XX          &&&&",
"&&&&            XXXXXXXX    ........    XXXXXXXX            &&&&",
"&&&&            XXXXXXXX    ........    XXXXXXXX            &&&&",
"&&&&&&                    ..oo$$$$oo..                    &&&&&&",
"&&&&&&                    ..oo$$$$oo..                    &&&&&&",
"&&&&&&      XXXXXXXXXXXX..$$%%%%$$%%$$..XXXXXXXXXXXX      &&&&&&",
"&&&&&&      XXXXXXXXXXXX..$$%%%%$$%%$$..XXXXXXXXXXXX      &&&&&&",
"&&&&&&    XXXXXXXXXXXX..oo$$%%%%$$$$$$oo..XXXXXXXXXXXX    &&&&&&",
"&&&&&&    XXXXXXXXXXXX..oo$$%%%%$$$$$$oo..XXXXXXXXXXXX    &&&&&&",
"&&&&&&    XXXXXXXXXXXX..$$$$$$$$$$$$$$$$..XXXXXXXXXXXX    &&&&&&",
"&&&&&&    XXXXXXXXXXXX..$$$$$$$$$$$$$$$$..XXXXXXXXXXXX    &&&&&&",
"&&&&&&      XXXXXXXXXX..$$$$$$$$$$$$$$$$..XXXXXXXXXX      &&&&&&",
"&&&&&&      XXXXXXXXXX..$$$$$$$$$$$$$$$$..XXXXXXXXXX      &&&&&&",
"&&&&              XXXX..oo$$$$$$$$$$$$oo..XXXX              &&&&",
"&&&&              XXXX..oo$$$$$$$$$$$$oo..XXXX              &&&&",
"&&&&  XXOO####++XX      ..oooooooooooo..      XX++####OOXX  &&&&",
"&&&&  XXOO####++XX      ..oooooooooooo..      XX++####OOXX  &&&&",
"&&&&    ##XXXX##++XX                        XX++##XXXX##    &&&&",
"&&&&    ##XXXX##++XX                        XX++##XXXX##    &&&&",
"&&&&&&    XXXXXX########++XXXXXXXXXXXX++########XXXXXX    &&&&&&",
"&&&&&&    XXXXXX########++XXXXXXXXXXXX++########XXXXXX    &&&&&&",
"&&&&&&&&    XXXXOOOOXX++################++XXOOOOXXXX    &&&&&&&&",
"&&&&&&&&    XXXXOOOOXX++################++XXOOOOXXXX    &&&&&&&&",
"&&&&&&&&&&&&  XXXXOOOOXXXXOOOOOOOOOOOOXXXXOOOOXXXX    &&&&&&&&&&",
"&&&&&&&&&&&&  XXXXOOOOXXXXOOOOOOOOOOOOXXXXOOOOXXXX    &&&&&&&&&&",
"&&&&&&&&&&&&&&    XXOOOOXXXXOOOOOOOOXXXXOOOOXX    &&&&&&&&&&&&&&",
"&&&&&&&&&&&&&&    XXOOOOXXXXOOOOOOOOXXXXOOOOXX    &&&&&&&&&&&&&&",
"&&&&&&&&&&&&&&&&      XXXXXXXXXXXXXXXXXXXX      &&&&&&&&&&&&&&&&",
"&&&&&&&&&&&&&&&&      XXXXXXXXXXXXXXXXXXXX      &&&&&&&&&&&&&&&&",
"&&&&&&&&&&&&&&&&&&&&                        &&&&&&&&&&&&&&&&&&&&",
"&&&&&&&&&&&&&&&&&&&&                        &&&&&&&&&&&&&&&&&&&&",
"&&&&&&&&&&&&&&&&&&&&&&&&&&&&&&&&&&&&&&&&&&&&&&&&&&&&&&&&&&&&&&&&",
"&&&&&&&&&&&&&&&&&&&&&&&&&&&&&&&&&&&&&&&&&&&&&&&&&&&&&&&&&&&&&&&&",
"&&&&&&&&&&&&&&&&&&&&&&&&&&&&&&&&&&&&&&&&&&&&&&&&&&&&&&&&&&&&&&&&",
"&&&&&&&&&&&&&&&&&&&&&&&&&&&&&&&&&&&&&&&&&&&&&&&&&&&&&&&&&&&&&&&&",
"&&&&&&&&&&&&&&&&&&&&&&&&&&&&&&&&&&&&&&&&&&&&&&&&&&&&&&&&&&&&&&&&",
"&&&&&&&&&&&&&&&&&&&&&&&&&&&&&&&&&&&&&&&&&&&&&&&&&&&&&&&&&&&&&&&&",
"&&&&&&&&&&&&&&&&&&&&&&&&&&&&&&&&&&&&&&&&&&&&&&&&&&&&&&&&&&&&&&&&",
"&&&&&&&&&&&&&&&&&&&&&&&&&&&&&&&&&&&&&&&&&&&&&&&&&&&&&&&&&&&&&&&&",
"&&&&&&&&&&&&&&&&&&&&&&&&&&&&&&&&&&&&&&&&&&&&&&&&&&&&&&&&&&&&&&&&"
};
