/* XPM */
static char *result[] = {
/* columns rows colors chars-per-pixel */
"64 64 17 1 ",
"  c #2C2A2A",
". c #362A20",
"X c #373435",
"o c #403226",
"O c #48382B",
"+ c #524031",
"@ c #634E3B",
"# c #433F40",
"$ c #534F54",
"% c #745B46",
"& c #6D6970",
"* c #876B51",
"= c #98805A",
"- c #AA9664",
"; c #BFA772",
": c #D4B980",
"> c None",
/* pixels */
">.::;-=*.>>>>>>>>>>>>>>>>>>>>>>>>>>>>>>>>>>>>>>>>>>>>>>>>.::;-=*",
">.%%%+++.>>>>>>>>>>>>>>>>>>>>>>>>>>>>>>>>>>>>>>>>>>>>>>>>.%%%+++",
">.;--=*%X >>>>>>>>>>>>>>>>>>>>>>>>>>>>>>>>>>>>>>>>>>>>>> $;--=*%",
">.;--=*%X >>>>>>>>>>>>>>>>>>>>>>>>>>>>>>>>>>>>>>>>>>>>>> $;--=*%",
">.:--=*%X >>>>>>>>>>>>>>>>>>>>>>>>>>>>>>>>>>>>>>>>>>>>>> $:--=*%",
">.:--=*%X >>>>>>>>>>>>>>>>>>>>>>>>>>>>>>>>>>>>>>>>>>>>>> $:--=*%",
">.:--=*%X >>>>>>>>>>>>>>>>>>>>>>>>>>>>>>>>>>>>>>>>>>>>>> $:--=*%",
">.::;-=*X >>>>>>>>>>>>>>>>>>>>>>>>>>>>>>>>>>>>>>>>>>>>>> $::;-=*",
">.%%%+++X >>>>>>>>>>>>>>>>>>>>>>>>>>>>>>>>>>>>>>>>>>>>>> $%%%+++",
">.;--=*%X >>>>>>>>>>>>>>>>>>>>>>>>>>>>>>>>>>>>>>>>>>>>>> $;--=*%",
">.;--=*%X >>>>>>>>>>>>>>>>>>>>>>>>>>>>>>>>>>>>>>>>>>>>>> $;--=*%",
">.:--=*%X >>>>>>>>>>>>>>>>>>>>>>>>>>>>>>>>>>>>>>>>>>>>>> $:--=*%",
">.:--=*%X >>>>>>>>>>>>>>>>>>>>>>>>>>>>>>>>>>>>>>>>>>>>>> $:--=*%",
">.:--=*%X >>>>>>>>>>>>>>>>>>>>>>>>>>>>>>>>>>>>>>>>>>>>>> $:--=*%",
">.::;-=*X >>>>>>>>>>>>>>>>>>>>>>>>>>>>>>>>>>>>>>>>>>>>>> $::;-=*",
">.%%%+++X >>>>>>>>>>>>>>>>>>>>>>>>>>>>>>>>>>>>>>>>>>>>>> $%%%+++",
">.;--=*%X >>>>>>>>>>>>>>>>>>>>>>>>>>>>>>>>>>>>>>>>>>>>>> $;--=*%",
">.;--=*%X >>>>>>>>>>>>>>>>>>>>>>>>>>>>>>>>>>>>>>>>>>>>>> $;--=*%",
">.:--=*%X >>>>>>>>>>>>>>>>>>>>>>>>>>>>>>>>>>>>>>>>>>>>>> $:--=*%",
">.:--=*%X >>>>>>>>>>>>>>>>>>>>>>>>>>>>>>>>>>>>>>>>>>>>>> $:--=*%",
"..::;-=*X  >>>>>>>>>>>>>>>>>>>>>>>>>>>>>>>>>>>>>>>>>>>>  $::;-=*",
"..@@@+++X X>>>>>>>>>>>>>>>>>>>>>>>>>>>>>>>>>>>>>>>>>>>>X $@@@+++",
"..@OOOooX & >>>>>>>>>>>>>>>>>>>>>>>>>>>>>>>>>>>>>>>>>> & $@OOOoo",
"..@OOOooX $ >>>>>>>>>>>>>>>>>>>>>>>>>>>>>>>>>>>>>>>>>> $ $@OOOoo",
"..@OOOooX   >>>>>>>>>>>>>>>>>>>>>>>>>>>>>>>>>>>>>>>>>>   $@OOOoo",
"..@OOOooX $ >>>>>>>>>>>>>>>>>>>>>>>>>>>>>>>>>>>>>>>>>> $ $@OOOoo",
"..+OOOooX $X >>>>>>>>>>>>>>>>>>>>>>>>>>>>>>>>>>>>>>>> X$ $+OOOoo",
"..@OOOooX #$ >>>>>>>>>>>>>>>>>>>>>>>>>>>>>>>>>>>>>>>> $# $@OOOoo",
"..+OOOooX #& >>>>>>>>>>>>>>>>>>>>>>>>>>>>>>>>>>>>>>>> &# X+OOOoo",
"..+OOOoo# X$ >>>>>>>>>>>>>>>>>>>>>>>>>>>>>>>>>>>>>>>> $X #+OOOoo",
"..+OOOoo$ X# >>>>>>>>>>>>>>>>>>>>>>>>>>>>>>>>>>>>>>>> #X $+OOOoo",
"..+OOOoo&   >>>>>>>>>>>>>>>>>>>>>>>>>>>>>>>>>>>>>>>>>>   &+OOOoo",
"        $ >>>>>>>>>>>>>>>>>>>>>>>>>>>>>>>>>>>>>>>>>>>>>> $      ",
"   X  X # >>>>>>>>>>>>>>>>>>>>>>>>>>>>>>>>>>>>>>>>>>>>>> # X  X ",
"        # >>>>>>>>>>>>>>>>>>>>>>>>>>>>>>>>>>>>>>>>>>>>>> #      ",
"        # >>>>>>>>>>>>>>>>>>>>>>>>>>>>>>>>>>>>>>>>>>>>>> #      ",
"   X  X # >>>>>>>>>>>>>>>>>>>>>>>>>>>>>>>>>>>>>>>>>>>>>> # X  X ",
"        & >>>>>>>>>>>>>>>>>>>>>>>>>>>>>>>>>>>>>>>>>>>>>> &      ",
"..Oooooo$ >>>>>>>>>>>>>>>>>>>>>>>>>>>>>>>>>>>>>>>>>>>>>> $Oooooo",
"..+OOOoo# >>>>>>>>>>>>>>>>>>>>>>>>>>>>>>>>>>>>>>>>>>>>>> #+OOOoo",
"..+OOOooX >>>>>>>>>>>>>>>>>>>>>>>>>>>>>>>>>>>>>>>>>>>>>> X+OOOoo",
"..+OOOoo  >>>>>>>>>>>>>>>>>>>>>>>>>>>>>>>>>>>>>>>>>>>>>>  +OOOoo",
"..+OOOooX >>>>>>>>>>>>>>>>>>>>>>>>>>>>>>>>>>>>>>>>>>>>>> $+OOOoo",
"..+OOOooX >>>>>>>>>>>>>>>>>>>>>>>>>>>>>>>>>>>>>>>>>>>>>> $+OOOoo",
"..+OOOooX >>>>>>>>>>>>>>>>>>>>>>>>>>>>>>>>>>>>>>>>>>>>>> $+OOOoo",
"..+OOOooX >>>>>>>>>>>>>>>>>>>>>>>>>>>>>>>>>>>>>>>>>>>>>> $+OOOoo",
"..+OOOooX >>>>>>>>>>>>>>>>>>>>>>>>>>>>>>>>>>>>>>>>>>>>>> $+OOOoo",
"..+OOOooX >>>>>>>>>>>>>>>>>>>>>>>>>>>>>>>>>>>>>>>>>>>>>> $+OOOoo",
"..+OOOooX >>>>>>>>>>>>>>>>>>>>>>>>>>>>>>>>>>>>>>>>>>>>>> $+OOOoo",
"..+OOOooX >>>>>>>>>>>>>>>>>>>>>>>>>>>>>>>>>>>>>>>>>>>>>> $+OOOoo",
"..+OOOooX >>>>>>>>>>>>>>>>>>>>>>>>>>>>>>>>>>>>>>>>>>>>>> $+OOOoo",
"..+OOOooX >>>>>>>>>>>>>>>>>>>>>>>>>>>>>>>>>>>>>>>>>>>>>> $+OOOoo",
"..+OOOooX >>>>>>>>>>>>>>>>>>>>>>>>>>>>>>>>>>>>>>>>>>>>>> $+OOOoo",
"..+OOOooX >>>>>>>>>>>>>>>>>>>>>>>>>>>>>>>>>>>>>>>>>>>>>> $+OOOoo",
"..+OOOooX >>>>>>>>>>>>>>>>>>>>>>>>>>>>>>>>>>>>>>>>>>>>>> $+OOOoo",
"..+OOOooX >>>>>>>>>>>>>>>>>>>>>>>>>>>>>>>>>>>>>>>>>>>>>> X+OOOoo",
"..+OOOoo# >>>>>>>>>>>>>>>>>>>>>>>>>>>>>>>>>>>>>>>>>>>>>> #+OOOoo",
"..+OOOoo$ >>>>>>>>>>>>>>>>>>>>>>>>>>>>>>>>>>>>>>>>>>>>>> $+OOOoo",
"..+OOOoo& >>>>>>>>>>>>>>>>>>>>>>>>>>>>>>>>>>>>>>>>>>>>>> &+OOOoo",
"        $ >>>>>>>>>>>>>>>>>>>>>>>>>>>>>>>>>>>>>>>>>>>>>> $      ",
"   X  X # >>>>>>>>>>>>>>>>>>>>>>>>>>>>>>>>>>>>>>>>>>>>>> # X  X ",
"        # >>>>>>>>>>>>>>>>>>>>>>>>>>>>>>>>>>>>>>>>>>>>>> #      ",
"        # >>>>>>>>>>>>>>>>>>>>>>>>>>>>>>>>>>>>>>>>>>>>>> #      ",
"   X  X # >>>>>>>>>>>>>>>>>>>>>>>>>>>>>>>>>>>>>>>>>>>>>> # X  X "
};
