/* XPM */
static char *result[] = {
/* columns rows colors chars-per-pixel */
"64 64 19 1 ",
"  c #2C2A2A",
". c #362A20",
"X c #373435",
"o c #403226",
"O c #48382B",
"+ c #524031",
"@ c #634E3B",
"# c #433F40",
"$ c #534F54",
"% c #745B46",
"& c #605C62",
"* c #6D6970",
"= c #876B51",
"- c #98805A",
"; c #AA9664",
": c #BFA772",
"> c #8D8A8F",
", c #D4B980",
"< c None",
/* pixels */
"<<<<<<<<<<<<<<<.%=-;;;;:.<<<<<<<<<<<<<<.:;;;;-=%.<<<<<<<<<<<<<<<",
"<<<<<<<<<<<<<<.%=-;;;;,+.<<<<<<<<<<<<<<.@,;;;;-=%.<<<<<<<<<<<<<<",
"<<<<<<<<<<<<<.%++::::,+O.<<<<<<<<<<<<<<.+%,::::++%.<<<<<<<<<<<<<",
"<<<<<<<<<<<<.%=--%%,,%OO.<<<<<<<<<<<<<<.+@=,,%%--=%.<<<<<<<<<<<<",
"<<<<<<<<<<<.%=-;;;;@%+OO.<<<<<<<<<<<<<<.+@%=%;;;;-=%.<<<<<<<<<<<",
"<<<<<<<<<<.%=-;;;;:o++OO.<<<<<<<<<<<<<<.+@%=+:;;;;-=%.<<<<<<<<<<",
"<<<<<<<<<.%=-;;;;,%o++OO.<<<<<<<<<<<<<<.+@%=O@,;;;;-=%.<<<<<<<<<",
"<<<<<<<<.%++::::,%+o++OO.<<<<<<<<<<<<<<.+@%=+@=,::::++%.<<<<<<<<",
"<<<<<<<.%=--%%,,%++o++OO.<<<<<<<<<<<<<<.+@%%O@%=,,%%--=%.<<<<<<<",
"<<<<<<.%=-;;;;@%+++o++OO.<<<<<<<<<<<<<<.+@%=+@%=@%;;;;-=%.<<<<<<",
"<<<<<.%=-;;;;:o++++o++OO$ <<<<<<<<<<<< $+@%%O@%=@+:;;;;-=%.<<<<<",
"<<<<.%=-;;;;,%o++++o++O$X <<<<<<<<<<<< X&@%%+@%=@O@,;;;;-=%.<<<<",
"<<<.%++::::,%+o++++o++$XX <<<<<<<<<<<< X#&%=O@%%@+@=,::::++%.<<<",
"<<.%=--%%,,%++o++++o+$XXX <<<<<<<<<<<< X##&%O@%%@+@%=,,%%--=%.<<",
"<.%=-;;;;@%+++o++++o$X$XX <<<<<<<<<<<< X#>#&O@%=@O@%%=%;;;;-=%.<",
".%=-;;;;:o++++o++++$X##X <<<<<<<<<<<<<< X*$#&@%=@+@%%=+:;;;;-=%.",
".=-;;;;,%o++++o+++$XXXX .<<<<<<<<<<<<<<. X###&%%@+@%%=O@,;;;;-=.",
".o%:,,,%+o++++o++$XXXX O.<<<<<<<<<<<<<<.+ X###&=@O@%%=+@%,,,:%o.",
".ooO%,%++o++++o+$XXXX OO.<<<<<<<<<<<<<<.+@ X###&@O@%%%O@%=,%Ooo.",
".ooOO@+++o++++o$X$XX OOO.<<<<<<<<<<<<<<.+@@ X#>#&O@%%%+@%%=OOoo.",
".ooOO@+++o++++$X##X O+OO.<<<<<<<<<<<<<<.+@%@ X*$#$@%%=O@%%=OOoo.",
".ooOO@+++o+++$XXXX o++OO.<<<<<<<<<<<<<<.+@%%O X###$%%%+@%%=OOoo.",
".ooOO@+++o++$XXXX Oo++OO.<<<<<<<<<<<<<<.+@%=O@ X###$%=+@%%%OOoo.",
".ooOO@+++o+$XXXX O+o++OO.<<<<<<<<<<<<<<.+@%=+@@ X###$%O@%%=OOoo.",
".ooOO$+++o$X$XX O++o++OO.<<<<<<<<<<<<<<.+@%=O@%@ X#>#$O@@@XOOoo.",
".ooOO$XX+$X##X O+++oXXOO.<<<<<<<<<<<<<<.+@XXO@%%@ X*$#$@XXXOOoo.",
".ooOO$#$#XXXX o++++XX# O.<<<<<<<<<<<<<<.+ ##X@%%%O X####*$XOOoo.",
" ooOO$*#XXXX Oo+++O X#XO.<<<<<<<<<<<<<<.+X$# @%%=O@ X##X$>XOOoo ",
"   OO$$#XXX O+o+++O  #$ .<<<<<<<<<<<<<<. *$  @%%=O@@ X#X$*XOO   ",
" X   $##XX O++o+++O X$# .<<<<<<<<<<<<<<. $*X @%%=O@%@ XX$#X   X ",
"    X$##X O+++o+++ XX# X.<<<<<<<<<<<<<<.X $X# %%=+@%%@ X$$XX    ",
"     $## o++++o+++ X X #.<<<<<<<<<<<<<<.$ X # %%%O@%%%O $$X     ",
" X   $##Oo++++o++O #   #.<<<<<<<<<<<<<<.$   $ @%%+@%%=O@$$X   X ",
".   X$*XOo++++o++OX# O #.<<<<<<<<<<<<<<.$ @ $#@%=O@%%=O@X>XX   .",
".oo  $$ +o++++o++OX#OO #.<<<<<<<<<<<<<<.# @@$#@%%+@%%=+@ *X  oo.",
".ooOO$XO+o++++o++OX$OO#X.<<<<<<<<<<<<<<.X#@@*#@%%+@%%=+@@XXOOoo.",
".ooOOX ++o++++o++OX$XX# .<<<<<<<<<<<<<<. $X#*#@%=O@%%%O@% XOOoo.",
".ooOO O++o++++o++O #$# O$ <<<<<<<<<<<< $+ $*$ @%%+@%%%+@%@ OOoo.",
".ooOO@+++o++++o+++O X O$X <<<<<<<<<<<< X&+ # @%%%+@%%=O@%%@OOoo.",
".ooOO@+++o++++o++++o++$XX <<<<<<<<<<<< X#&@@O@%%%+@%%%+@%%%OOoo.",
".ooOO@+++o++++o++++o+$XXX <<<<<<<<<<<< X##&@O@%%=O@%%%O@%%=OOoo.",
".ooOO@+++o++++o++++o$X$XX <<<<<<<<<<<< X#>#&O@%%%O@%%=O@%%=OOoo.",
".ooOO@+++o++++o++++$X##X <<<<<<<<<<<<<< X*$#&@%%=O@%%%+@%%=OOoo.",
".ooOO@+++o++++o+++$XXXX .<<<<<<<<<<<<<<. X###&%%%+@%%%+@%%%OOoo.",
".ooOO@+++o++++o++$XXXX O.<<<<<<<<<<<<<<.+ X###&%%+@%%%O@%%=OOoo.",
".ooOO@+++o++++o+$XXXX OO.<<<<<<<<<<<<<<.+@ X###&%O@%%=O@%%=OOoo.",
".ooOO@+++o++++o$X$XX OOO.<<<<<<<<<<<<<<.+@@ X#>#&+@%%%+@%%=OOoo.",
".ooOO@+++o++++$X##X O+OO.<<<<<<<<<<<<<<.+@%@ X*$#$@%%=+@%%%OOoo.",
".ooOO@+++o+++$XXXX o++OO.<<<<<<<<<<<<<<.+@%%O X###$%%%O@%%=OOoo.",
".ooOO@+++o++$XXXX Oo++OO.<<<<<<<<<<<<<<.+@@%O@ X###$%%O@%%%OOoo.",
".ooOO@+++o+$XXXX O+o++OO.<<<<<<<<<<<<<<.+@%%O@@ X###$%O@%%%OOoo.",
".ooOO$+++o$X$XX O++o++OO.<<<<<<<<<<<<<<.+@%%+@%@ X#>#$+@@@XOOoo.",
".ooOO$XX+$X##X O+++o++OO.<<<<<<<<<<<<<<.+@@%O@%%@ X*$#$@XXXOOoo.",
".ooOO$#$#XXXX o++++o++O.<<<<<<<<<<<<<<<<.@%%+@%%%O X####*$XOOoo.",
" ooOO$*#XXXX Oo++++o+O.<<<<<<<<<<<<<<<<<<.@%+@%@%O@ X##X$>XOOoo ",
"   OO$$#XXX O+o++++oO.<<<<<<<<<<<<<<<<<<<<.@O@%%%O@@ X#X$*XOO   ",
" X   $##XX O++o++++o.<<<<<<<<<<<<<<<<<<<<<<.O@@%%+@%@ XX$#X   X ",
"    X$##X O+++o+++O.<<<<<<<<<<<<<<<<<<<<<<<<.@@@%+@%%@ X$$XX    ",
"     $## o++++o++O.<<<<<<<<<<<<<<<<<<<<<<<<<<.@%%O@%%%O $$X     ",
" X   $##Oo++++o+O.<<<<<<<<<<<<<<<<<<<<<<<<<<<<.@%O@%@%O@$$X   X ",
".   X$*XOo++++oO.<<<<<<<<<<<<<<<<<<<<<<<<<<<<<<.@O@%%%+@X>XX   .",
".oo  $$ +o++++o.<<<<<<<<<<<<<<<<<<<<<<<<<<<<<<<<.O@@%%+@ *X  oo.",
".ooOO$XO+o+++O.<<<<<<<<<<<<<<<<<<<<<<<<<<<<<<<<<<.@@@%O@@XXOOoo.",
".ooOOX ++o++O.<<<<<<<<<<<<<<<<<<<<<<<<<<<<<<<<<<<<.@%%+@% XOOoo."
};
