/* XPM */
static char *result[] = {
/* columns rows colors chars-per-pixel */
"64 64 18 1 ",
"  c #2C2A2A",
". c #362A20",
"X c #373435",
"o c #48382B",
"O c #524031",
"+ c #634E3B",
"@ c #433F40",
"# c #534F54",
"$ c #745B46",
"% c #605C62",
"& c #6D6970",
"* c #876B51",
"= c #98805A",
"- c #AA9664",
"; c #BFA772",
": c #8D8A8F",
"> c #D4B980",
", c None",
/* pixels */
",,,,,,,,,,,,,,,,,,,,,,,,,,,,,,,,,,,,,,,,,,,,,,,,,,,,,,,,,,,,,,,,",
",,,,,,,,,,,,,,,,,,,,,,,,,,,,,,,,,,,,,,,,,,,,,,,,,,,,,,,,,,,,,,,,",
"................................................................",
".*$$$$$O*$$$$$$O*$$$$$$O*$$$$$$.O*$$$$$$O*$$$$$$O*$$$$$$O*$$$$$.",
".=*****O=******O=******O=******.O=******O=******O=******O=*****.",
".-=====O-======O-======O-======.O-======O-======O-======O-=====.",
".;-----$;------$;------$;------O$;------$;------$;------$;-----.",
".>-----$>------$>------$>------O$>------$>------$>------$>-----.",
".>>>>;;$>>>>>;;$>>>>>;;$>>>>>;;O$>>>>>;;$>>>>>;;$>>>>>;;$>>>>;;.",
".***$$+O**$*$$+O**$*$$+O**$*$$+.O**$*$$+O**$*$$+O**$*$$+O***$$+.",
".*$$$$+O*$$$$$+o*$$$$$+o*$$$$$+.O*$$$$$+o*$$$$$+o*$$$$$+o*$$$$+.",
".*$$$$+o*$$$$$+O*$$$$$+O*$$$$$+.O*$$$$$+O*$$$$$+O*$$$$$+O*$$$$+.",
".$$$$$+O*$$$$$+o*$$$$$+O*$$$$$+.O*$$$$$+o*$$$$$+O*$$$$$+o$$$$$+.",
".*$$$$+O$$$$$$+O$$$$$$+o$$$$$$+.O$$$$$$+O$$$$$$+o$$$$$$+O*$$$$+.",
".*$$$$+o$$$$$$+o$$$$$$+O$$$$$$+.O$$$$$$+o$$$$$$+O$$$$$$+o*$$$$+.",
" X$$$$+O*$$$$$+O*$$$$$+o*$$$$$+.O*$$$$$+O*$$$$$+O*$$$$$+O$$$$+X ",
" &X+$$+o*$$$$$+o*$$$$$+O*$$$$$+.O*$$$$$+o*$$$$$+o*$$$$$+O*$$+X@ ",
" ##X+$+o$$$$$$+o$$$$$$+o$$$$$$+.O$$$$$$+o$$$$$$+o$$$$$$+o$$+X## ",
" :&#X++o*$$$$$+o*$$$$$+o*$$$$$+.O*$$$$$+o*$$$$$+o*$$$$$+o$+X&:& ",
" &#@ @######%#%#%#%%#%%%%%%%%%#X##%%%%%%%%%#%%#%#%#%######@ #&# ",
" @@@ X@@@@@@@@@@@@@@@@@@@@@@@@X X@@@@@@@@@@@@@@@@@@@@@@@@@X #@@ ",
" #@@ X@@@@:&@@@@@@:&@@@@@@:&@@X X@@@:&@@@@@@:&@@@@@@:&@@@@X ##@ ",
" #@@ X@@@@&#X@@@@@&#X@@@@@&#X@X X@@@&#X@@@@@&#X@@@@@&#X@@@X ##@ ",
" #@@ XXXXXXXXXXXXXXXXXXXXXXXXXX XXXXXXXXXXXXXXXXXXXXXXXXXXX ##@ ",
" :&@                                                        #:& ",
" &#X ++o+++++++o+++++++o+++++++.O+++++++o+++++++o+++++++o++ X&# ",
" @X +$+o$$$$$$+o$$$$$$+o$$$$$$+.O*$$$$$+o$$$$$$+o$$$$$$+o$$+ X@ ",
" X +$$+o*$$$$$+o*$$$$$+O*$$$$$+.O*$$$$$+O*$$$$$+o*$$$$$+o*$$+ X ",
"  +$$$+o*$$$$$+O*$$$$$+O*$$$$$+.O*$$$$$+o*$$$$$+o*$$$$$+O*$$$+  ",
".+$$$$+O*$$$$$+o*$$$$$+o$$$$$$+.O*$$$$$+o$$$$$$+O*$$$$$+O*$$$$+.",
".$$$$$+o*$$$$$+o*$$$$$+O*$$$$$+.O$$$$$$+O*$$$$$+o*$$$$$+o$$$$$+.",
".*$$$$+O$$$$$$+O$$$$$$+XXXX$$$+.O*$$$XXXX$$$$$$+O$$$$$$+O*$$$$+.",
".*$$$$+o*$$$$$+o$$$$$$X@XX@X$$+.O$$$X@XX@X$$$$$+o$$$$$$+o*$$$$+.",
".*$$$$+O$$$$$$+O*$$$$$  ##  $$+.O$$$  ##  $$$$$+O*$$$$$+O*$$$$+.",
".*$$$$+O*$$$$$+O*$$$$$ X&&X $$+.O*$$ X&&X $$$$$+O$$$$$$+o$$$$$+.",
".$$$$$+o$$$$$$+o*$$$$ &X##X@ $+.O$$ &X##X@ $$$$+o$$$$$$+o*$$$$+.",
".*$$$$+O*$$$$$+O$$$$ &@ @@ #@ +.O* &@ @@ #@ $$$+O*$$$$$+O$$$$$+.",
".*$$$$+O*$$$$$+o*$$$X& X  X #X+.O$X& X  X #X$$$+O$$$$$$+O$$$$$+.",
".*$$$$+o$$$$$$+o*$$$X#      #X+.O$X#      #X$$$+O$$$$$$+o*$$$$+.",
".$$$$$+O*$$$$$+O$$$$X# o+++ &X+.O$X# +++o &X$$$+o$$$$$$+o$$$$$+.",
".*$$$$+O*$$$$$+o$$$$X#Xo$$$X&X+.O*X#X$$+oX&X$$$+o*$$$$$+O$$$$$+.",
".$$$$$+o*$$$$$+o*$$$ @#XXXX&# +.O* @#XXXX&# $$$+o$$$$$$+O*$$$$+.",
" X$$$$+o$$$$$$+O$$$$+ @##&&# ++.O*+ @##&&# +$$$+O*$$$$$+o$$$$+X ",
" &X+$$+O*$$$$$+O*$$$$+      +$+.O$$+      +$$$$+O$$$$$$+o$$$+X@ ",
" ##X+$+o$$$$$$+o$$$$$$+o++++$$+.O*$$++++o+$$$$$+o$$$$$$+o$$+X## ",
" :&#X++o$$$$$$+o$$$$$$+o$$$$$$+.O$$$$$$+o$$$$$$+O$$$$$$+O$+X&:& ",
" &#@ @######%#%#%#%%#%%%%%%%%%#X##%%%%%%%%%#%%#%#%#%######@ #&# ",
" @@@ X@@@@@@@@@@@@@@@@@@@@@@@@X X@@@@@@@@@@@@@@@@@@@@@@@@@X #@@ ",
" #@@ X@@@@:&@@@@@@:&@@@@@@:&@@X X@@@:&@@@@@@:&@@@@@@:&@@@@X ##@ ",
" #@@ X@@@@&#X@@@@@&#X@@@@@&#X@X X@@@&#X@@@@@&#X@@@@@&#X@@@X ##@ ",
" #@@ XXXXXXXXXXXXXXXXXXXXXXXXXX XXXXXXXXXXXXXXXXXXXXXXXXXXX ##@ ",
" :&@                                                        #:& ",
" &#X ++o+++++++o+++++++o+++++++.O+++++++o+++++++o+++++++o++ X&# ",
" @X +$+o$$$$$$+o$$$$$$+o$$$$$$+.O$$$$$$+o$$$$$$+o$$$$$$+o$$+ X@ ",
" X +$$+O$$$$$$+o$$$$$$+O$$$$$$+.O$$$$$$+o$$$$$$+o$$$$$$+O$$$+ X ",
"  ++$$+O$$$$$++O$$$$$++o$$$$$++.O$$$$$++O$$$$$++O$$$$$++O$$+$+  ",
".+$$$$+o$$+$$$+o$$+$$$+O$$+$$$+.O$$+$$$+o$$+$$$+O$$+$$$+o$$$$$+.",
".$$+$$+O$$$$$++O$$$$$++o$$$$$++.O$$$$$++O$$$$$++o$$$$$++O$$+$$+.",
".$$+$++o$$+$+$+o$$+$+$+O$$+$+$+.O$$+$+$+O$$+$+$+o$$+$+$+o$$+$++.",
".$$++$+O$$++$++o$$++$++o$$++$++.O$$++$++o$$++$++o$$++$++o$$++$+.",
".++++++o+++++++o+++++++o+++++++.O+++++++o+++++++o+++++++o++++++.",
"................................................................",
",,,,,,,,,,,,,,,,,,,,,,,,,,,,,,,,,,,,,,,,,,,,,,,,,,,,,,,,,,,,,,,,",
",,,,,,,,,,,,,,,,,,,,,,,,,,,,,,,,,,,,,,,,,,,,,,,,,,,,,,,,,,,,,,,,"
};
