/* XPM */
static char *result[] = {
/* columns rows colors chars-per-pixel */
"64 64 15 1 ",
"  c #683C48",
". c #304048",
"X c #484460",
"o c #607478",
"O c #B86448",
"+ c #D8BC70",
"@ c #F8C848",
"# c #62459C",
"$ c #8860D8",
"% c #789890",
"& c #A8C0B8",
"* c #AE85FD",
"= c #F0F0C0",
"- c #E0E8D8",
"; c None",
/* pixels */
";;;;;;;;;;;;;;;;;;;;;;;;;;;;;;;;;;;;;;;;;;;;;;;;;;;;;;;;;;;;;;;;",
";;;;;;;;;;;;;;;;;;;;;;;;;;;;;;;;;;;;;;;;;;;;;;;;;;;;;;;;;;;;;;;;",
";;;;;;;;;;;;;;;;;;;;;;;;....XXXXXX....;;;;;;;;;;;;;;;;;;;;;;;;;;",
";;;;;;;;;;;;;;;;;;;;;;;;....XXXXXX....;;;;;;;;;;;;;;;;;;;;;;;;;;",
";;;;;;;;;;;;;;;;;;;;;;..&&----------&&..;;;;;;;;;;;;;;;;;;;;;;;;",
";;;;;;;;;;;;;;;;;;;;;;..&&----------&&..;;;;;;;;;;;;;;;;;;;;;;;;",
";;;;;;;;;;;;;;;;;;;;..%%----  OO  ----%%..;;;;;;;;;;;;;;;;;;;;;;",
";;;;;;;;;;;;;;;;;;;;..%%----  OO  ----%%..;;;;;;;;;;;;;;;;;;;;;;",
";;;;;;;;;;;;;;;;;;;;XX&&OO%%  @@  %%OO&&XX;;;;;;;;;;;;;;;;;;;;;;",
";;;;;;;;;;;;;;;;;;;;XX&&OO%%  @@  %%OO&&XX;;;;;;;;;;;;;;;;;;;;;;",
";;;;;;;;;;;;;;;;;;;;..OO@@    @@    @@OO..;;;;;;;;;;;;;;;;;;;;;;",
";;;;;;;;;;;;;;;;;;;;..OO@@    @@    @@OO..;;;;;;;;;;;;;;;;;;;;;;",
";;;;;;;;;;;;;;;;;;;;..  OO@@OO@@OO@@OO  ..;;;;;;;;;;;;;;;;;;;;;;",
";;;;;;;;;;;;;;;;;;;;..  OO@@OO@@OO@@OO  ..;;;;;;;;;;;;;;;;;;;;;;",
";;;;;;;;;;;;;;;;;;XXoo%%  OO@@@@@@OO  %%ooXX;;;;;;;;;;;;;;;;;;;;",
";;;;;;;;;;;;;;;;;;XXoo%%  OO@@@@@@OO  %%ooXX;;;;;;;;;;;;;;;;;;;;",
";;;;;;;;;;;;;;;;;;..oo&&OO  OOOOOO  OO&&oo..;;;;;;;;;;;;;;;;;;;;",
";;;;;;;;;;;;;;;;;;..oo&&OO  OOOOOO  OO&&oo..;;;;;;;;;;;;;;;;;;;;",
";;;;;;;;;;;;;;;;;;..oo&&%%%%OO++OO%%%%&&oo..;;;;;;;;;;;;;;;;;;;;",
";;;;;;;;;;;;;;;;;;..oo&&%%%%OO++OO%%%%&&oo..;;;;;;;;;;;;;;;;;;;;",
";;;;;;;;;;;;;;;;..XX&&%%----++==%%----%%&&XX..;;;;;;;;;;;;;;;;;;",
";;;;;;;;;;;;;;;;..XX&&%%----++==%%----%%&&XX..;;;;;;;;;;;;;;;;;;",
";;;;;;;;;;;;;;;;XXoo--oo....====++....oo--ooXX;;;;;;;;;;;;;;;;;;",
";;;;;;;;;;;;;;;;XXoo--oo....====++....oo--ooXX;;;;;;;;;;;;;;;;;;",
";;;;;;;;;;;;;;;;..oo--XX++++++%%%%++++XX--oo..;;;;;;;;;;;;;;;;;;",
";;;;;;;;;;;;;;;;..oo--XX++++++%%%%++++XX--oo..;;;;;;;;;;;;;;;;;;",
";;;;;;;;;;;;;;XX%%--&&XXOOoo------ooOOXX&&----XX;;;;;;;;;;;;;;;;",
";;;;;;;;;;;;;;XX%%--&&XXOOoo------ooOOXX&&----XX;;;;;;;;;;;;;;;;",
";;;;;;;;;;;;;;XX%%XXoo%%oo--oooooo--oo%%ooXX%%XX;;;;;;;;;;;;;;;;",
";;;;;;;;;;;;;;XX%%XXoo%%oo--oooooo--oo%%ooXX%%XX;;;;;;;;;;;;;;;;",
";;;;;;;;;;;;;;;;XXXX  oo--oo%%&&%%oo--oo  XXXX;;;;;;;;;;;;;;;;;;",
";;;;;;;;;;;;;;;;XXXX  oo--oo%%&&%%oo--oo  XXXX;;;;;;;;;;;;;;;;;;",
";;;;;;;;;;;;;;  OO@@OOXXXXXX&&&&&&XXXXXXOO@@OO  ;;;;;;;;;;;;;;;;",
";;;;;;;;;;;;;;  OO@@OOXXXXXX&&&&&&XXXXXXOO@@OO  ;;;;;;;;;;;;;;;;",
";;;;;;;;;;;;  ++==OO  ..  OOXXooXXOO  ..  OO==++  ;;;;;;;;;;;;;;",
";;;;;;;;;;;;  ++==OO  ..  OOXXooXXOO  ..  OO==++  ;;;;;;;;;;;;;;",
";;;;;;;;;;;;  ======  ....++======++....  ======  ;;;;;;;;;;;;;;",
";;;;;;;;;;;;  ======  ....++======++....  ======  ;;;;;;;;;;;;;;",
";;;;;;;;;;;;..++====++....OO======OO....++====++..;;;;;;;;;;;;;;",
";;;;;;;;;;;;..++====++....OO======OO....++====++..;;;;;;;;;;;;;;",
";;;;;;;;;;;;;;..OO++OO  $$@@OOOOOO@@$$  OO++OO..;;;;;;;;;;;;;;;;",
";;;;;;;;;;;;;;..OO++OO  $$@@OOOOOO@@$$  OO++OO..;;;;;;;;;;;;;;;;",
";;;;;;;;;;;;;;;;......XX$$OO@@@@@@  $$XX......;;;;;;;;;;;;;;;;;;",
";;;;;;;;;;;;;;;;......XX$$OO@@@@@@  $$XX......;;;;;;;;;;;;;;;;;;",
";;;;;;;;;;;;;;;;;;;;;;XX$$**OOOO  **$$XX;;;;;;;;;;;;;;;;;;;;;;;;",
";;;;;;;;;;;;;;;;;;;;;;XX$$**OOOO  **$$XX;;;;;;;;;;;;;;;;;;;;;;;;",
";;;;;;;;;;;;;;;;;;;;;;XX$$$$********$$XX;;;;;;;;;;;;;;;;;;;;;;;;",
";;;;;;;;;;;;;;;;;;;;;;XX$$$$********$$XX;;;;;;;;;;;;;;;;;;;;;;;;",
";;;;;;;;;;;;;;;;;;;;;;;;XX$$$$$$$$$$XX;;;;;;;;;;;;;;;;;;;;;;;;;;",
";;;;;;;;;;;;;;;;;;;;;;;;XX$$$$$$$$$$XX;;;;;;;;;;;;;;;;;;;;;;;;;;",
";;;;;;;;;;;;;;;;;;;;;;;;..##$$$$$$##..;;;;;;;;;;;;;;;;;;;;;;;;;;",
";;;;;;;;;;;;;;;;;;;;;;;;..##$$$$$$##..;;;;;;;;;;;;;;;;;;;;;;;;;;",
";;;;;;;;;;;;;;;;;;;;;;;;;;XX##$$$$XX;;;;;;;;;;;;;;;;;;;;;;;;;;;;",
";;;;;;;;;;;;;;;;;;;;;;;;;;XX##$$$$XX;;;;;;;;;;;;;;;;;;;;;;;;;;;;",
";;;;;;;;;;;;;;;;;;;;;;;;;;..######..;;;;;;;;;;;;;;;;;;;;;;;;;;;;",
";;;;;;;;;;;;;;;;;;;;;;;;;;..######..;;;;;;;;;;;;;;;;;;;;;;;;;;;;",
";;;;;;;;;;;;;;;;;;;;;;XXXX$$******$$XXXX;;;;;;;;;;;;;;;;;;;;;;;;",
";;;;;;;;;;;;;;;;;;;;;;XXXX$$******$$XXXX;;;;;;;;;;;;;;;;;;;;;;;;",
";;;;;;;;;;;;;;;;;;XXXX##**************##XXXX;;;;;;;;;;;;;;;;;;;;",
";;;;;;;;;;;;;;;;;;XXXX##**************##XXXX;;;;;;;;;;;;;;;;;;;;",
";;;;;;;;;;;;;;;;;;XX********$$##$$********XX;;;;;;;;;;;;;;;;;;;;",
";;;;;;;;;;;;;;;;;;XX********$$##$$********XX;;;;;;;;;;;;;;;;;;;;",
";;;;;;;;;;;;;;;;;;;;..$$$$##......##$$$$..;;;;;;;;;;;;;;;;;;;;;;",
";;;;;;;;;;;;;;;;;;;;..$$$$##......##$$$$..;;;;;;;;;;;;;;;;;;;;;;"
};
