/* XPM */
static char *result[] = {
/* columns rows colors chars-per-pixel */
"64 64 3 1 ",
"  c #6B6952",
". c #7B795A",
"X c #948E6B",
/* pixels */
"XXXXXX..XXXXXXXXXXXXXXXX..XXXXXXXXXXXX..XXXXXXXXXXXXXXXX..XXXXXX",
"XXXXXXXXXXXX..XXXXXX....XXXXXXXXXXXXXXXXXXXX..XXXXXX....XXXXXXXX",
"XXXXXXXXXXXX..XXXXXX....XXXXXXXXXXXXXXXXXXXX..XXXXXX....XXXXXXXX",
"XXXXXXXXXXXXXX......  ..XXXXXXXXXXXXXXXXXXXXXX......  ..XXXXXXXX",
"XXXXXXXXXXXXXX......  ..XXXXXXXXXXXXXXXXXXXXXX......  ..XXXXXXXX",
"XXXXXXXX..        ....XXXXXXXXXXXXXXXXXX..        ....XXXXXXXXXX",
"XXXXXXXX..        ....XXXXXXXXXXXXXXXXXX..        ....XXXXXXXXXX",
"XX..XX......    ..XXXXXXXX..XXXXXX..XX......    ..XXXXXXXX..XXXX",
"XX..XX......    ..XXXXXXXX..XXXXXX..XX......    ..XXXXXXXX..XXXX",
"XX........XX......XXXXXXXXXXXXXXXX........XX......XXXXXXXXXXXXXX",
"XX........XX......XXXXXXXXXXXXXXXX........XX......XXXXXXXXXXXXXX",
"XXXXXX......XXXXXXXXXXXXXXXXXXXXXXXXXX......XXXXXXXXXXXXXXXXXXXX",
"XXXXXX......XXXXXXXXXXXXXXXXXXXXXXXXXX......XXXXXXXXXXXXXXXXXXXX",
"XXXXXXXX..XX..XXXX..XXXXXX..XXXXXXXXXXXX..XX..XXXX..XXXXXX..XXXX",
"XXXXXXXX..XX..XXXX..XXXXXX..XXXXXXXXXXXX..XX..XXXX..XXXXXX..XXXX",
"XXXXXX............XXXXXXXXXX....XXXXXX............XXXXXXXXXX....",
"XXXXXX............XXXXXXXXXX....XXXXXX............XXXXXXXXXX....",
"..XXXXXX..XX..    ....XXXXXXXX....XXXXXX..XX..    ....XXXXXXXX..",
"..XXXXXX..XX..    ....XXXXXXXX....XXXXXX..XX..    ....XXXXXXXX..",
"..XXXXXXXX......    ....XXXXXX....XXXXXXXX......    ....XXXXXX..",
"..XXXXXXXX......    ....XXXXXX....XXXXXXXX......    ....XXXXXX..",
"..XXXXXX....XX        ....XXXX....XXXXXX....XX        ....XXXX..",
"..XXXXXX....XX        ....XXXX....XXXXXX....XX        ....XXXX..",
"XXXXXXXXXXXXXX  ..  ....XXXX....XXXXXXXXXXXXXX  ..  ....XXXX....",
"XXXXXXXXXXXXXX  ..  ....XXXX....XXXXXXXXXXXXXX  ..  ....XXXX....",
"XXXX..XXXXXX....  ....XXXX..XXXXXXXX..XXXXXX....  ....XXXX..XXXX",
"XXXX..XXXXXX....  ....XXXX..XXXXXXXX..XXXXXX....  ....XXXX..XXXX",
"XX..XXXXXX..........XXXXXXXXXXXXXX..XXXXXX..........XXXXXXXXXXXX",
"XX..XXXXXX..........XXXXXXXXXXXXXX..XXXXXX..........XXXXXXXXXXXX",
"XXXXXXXX....XXXX..XXXXXXXXXXXXXXXXXXXXXX....XXXX..XXXXXXXXXXXXXX",
"XXXXXXXX....XXXX..XXXXXXXXXXXXXXXXXXXXXX....XXXX..XXXXXXXXXXXXXX",
"XXXXXX..XXXXXXXXXXXXXXXX..XXXXXXXXXXXX..XXXXXXXXXXXXXXXX..XXXXXX",
"XXXXXX..XXXXXXXXXXXXXXXX..XXXXXXXXXXXX..XXXXXXXXXXXXXXXX..XXXXXX",
"XXXXXXXXXXXX..XXXXXX....XXXXXXXXXXXXXXXXXXXX..XXXXXX....XXXXXXXX",
"XXXXXXXXXXXX..XXXXXX....XXXXXXXXXXXXXXXXXXXX..XXXXXX....XXXXXXXX",
"XXXXXXXXXXXXXX......  ..XXXXXXXXXXXXXXXXXXXXXX......  ..XXXXXXXX",
"XXXXXXXXXXXXXX......  ..XXXXXXXXXXXXXXXXXXXXXX......  ..XXXXXXXX",
"XXXXXXXX..        ....XXXXXXXXXXXXXXXXXX..        ....XXXXXXXXXX",
"XXXXXXXX..        ....XXXXXXXXXXXXXXXXXX..        ....XXXXXXXXXX",
"XX..XX......    ..XXXXXXXX..XXXXXX..XX......    ..XXXXXXXX..XXXX",
"XX..XX......    ..XXXXXXXX..XXXXXX..XX......    ..XXXXXXXX..XXXX",
"XX........XX......XXXXXXXXXXXXXXXX........XX......XXXXXXXXXXXXXX",
"XX........XX......XXXXXXXXXXXXXXXX........XX......XXXXXXXXXXXXXX",
"XXXXXX......XXXXXXXXXXXXXXXXXXXXXXXXXX......XXXXXXXXXXXXXXXXXXXX",
"XXXXXX......XXXXXXXXXXXXXXXXXXXXXXXXXX......XXXXXXXXXXXXXXXXXXXX",
"XXXXXXXX..XX..XXXX..XXXXXX..XXXXXXXXXXXX..XX..XXXX..XXXXXX..XXXX",
"XXXXXXXX..XX..XXXX..XXXXXX..XXXXXXXXXXXX..XX..XXXX..XXXXXX..XXXX",
"XXXXXX............XXXXXXXXXX....XXXXXX............XXXXXXXXXX....",
"XXXXXX............XXXXXXXXXX....XXXXXX............XXXXXXXXXX....",
"..XXXXXX..XX..    ....XXXXXXXX....XXXXXX..XX..    ....XXXXXXXX..",
"..XXXXXX..XX..    ....XXXXXXXX....XXXXXX..XX..    ....XXXXXXXX..",
"..XXXXXXXX......    ....XXXXXX....XXXXXXXX......    ....XXXXXX..",
"..XXXXXXXX......    ....XXXXXX....XXXXXXXX......    ....XXXXXX..",
"..XXXXXX....XX        ....XXXX....XXXXXX....XX        ....XXXX..",
"..XXXXXX....XX        ....XXXX....XXXXXX....XX        ....XXXX..",
"XXXXXXXXXXXXXX  ..  ....XXXX....XXXXXXXXXXXXXX  ..  ....XXXX....",
"XXXXXXXXXXXXXX  ..  ....XXXX....XXXXXXXXXXXXXX  ..  ....XXXX....",
"XXXX..XXXXXX....  ....XXXX..XXXXXXXX..XXXXXX....  ....XXXX..XXXX",
"XXXX..XXXXXX....  ....XXXX..XXXXXXXX..XXXXXX....  ....XXXX..XXXX",
"XX..XXXXXX..........XXXXXXXXXXXXXX..XXXXXX..........XXXXXXXXXXXX",
"XX..XXXXXX..........XXXXXXXXXXXXXX..XXXXXX..........XXXXXXXXXXXX",
"XXXXXXXX....XXXX..XXXXXXXXXXXXXXXXXXXXXX....XXXX..XXXXXXXXXXXXXX",
"XXXXXXXX....XXXX..XXXXXXXXXXXXXXXXXXXXXX....XXXX..XXXXXXXXXXXXXX",
"XXXXXX..XXXXXXXXXXXXXXXX..XXXXXXXXXXXX..XXXXXXXXXXXXXXXX..XXXXXX"
};
