/* XPM */
static char *result[] = {
/* columns rows colors chars-per-pixel */
"65 64 16 1 ",
"  c #683C48",
". c #6C3C4A",
"X c #304048",
"o c #354048",
"O c #394B62",
"+ c #C87B00",
"@ c #B86448",
"# c #D45679",
"$ c #EDC329",
"% c #D8BC70",
"& c #2571C5",
"* c #30A8B8",
"= c #70E0E8",
"- c #FC8CAB",
"; c #F0F0C0",
": c None",
/* pixels */
":::::::::::::::::::::::::::::......::::::::::::::::::::::::::::::",
":::::::::::::::::::::::::::..##--##..::::::::::::::::::::::::::::",
":::::::::::::::::::::::::::..##--##..::::::::::::::::::::::::::::",
":::::::::::::::::::::::::oo..------..oo::::::::::::::::::::::::::",
":::::::::::::::::::::::::oo..------..oo::::::::::::::::::::::::::",
":::::::::::::::::::::::oo##..##--##..##oo::::::::::::::::::::::::",
":::::::::::::::::::::::oo##..##--##..##oo::::::::::::::::::::::::",
":::::::::::::::::::::oo----##......##----oo::::::::::::::::::::::",
":::::::::::::::::::::oo----##......##----oo::::::::::::::::::::::",
":::::::::::::::::::oo..##--------------##..oo::::::::::::::::::::",
":::::::::::::::::::oo..##--------------##..oo::::::::::::::::::::",
":::::::::::::::::::oo$$....##########....$$oo::::::::::::::::::::",
":::::::::::::::::::oo$$....##########....$$oo::::::::::::::::::::",
":::::::::::::::::::....$$$$$$$$$$$$$$$$$$....::::::::::::::::::::",
":::::::::::::::::::....$$$$$$$$$$$$$$$$$$....::::::::::::::::::::",
":::::::::::::::::..oo##....++++++++++....##oo..::::::::::::::::::",
":::::::::::::::::..oo##....++++++++++....##oo..::::::::::::::::::",
":::::::::::::::::oo..##--##--######--##--##..oo::::::::::::::::::",
":::::::::::::::::oo..##--##--######--##--##..oo::::::::::::::::::",
":::::::::::::::..oo....##------##------##....oo..::::::::::::::::",
":::::::::::::::..oo....##------##------##....oo..::::::::::::::::",
":::::::::::::::oooo..##..##--##--##--##..##..XXoo::::::::::::::::",
":::::::::::::::oooo..##..##--##--##--##..##..XXoo::::::::::::::::",
":::::::::::::::::ooXX..##################..XXoo::::::::::::::::::",
":::::::::::::::::ooXX..##################..XXoo::::::::::::::::::",
":::::::::::::::::::::oo..####......####..oo::::::::::::::::::::::",
":::::::::::::::::::::oo..####......####..oo::::::::::::::::::::::",
":::::::::::::::::::::  ;;oooo......oooo;;  ::::::::::::::::::::::",
":::::::::::::::::::::  ;;oooo......oooo;;  ::::::::::::::::::::::",
":::::::::::::::::::  ;;;;@@%%;;;;;;%%@@;;;;  ::::::::::::::::::::",
":::::::::::::::::::  ;;;;@@%%;;;;;;%%@@;;;;  ::::::::::::::::::::",
":::::::::::::::::  ;;;;@@OO  @@@@@@  OO@@;;;;  ::::::::::::::::::",
":::::::::::::::::  ;;;;@@OO  @@@@@@  OO@@;;;;  ::::::::::::::::::",
":::::::::::::::  %%;;;;  XX@@%%%%%%@@XX  ;;;;%%  ::::::::::::::::",
":::::::::::::::  %%;;;;  XX@@%%%%%%@@XX  ;;;;%%  ::::::::::::::::",
":::::::::::::::  ;;;;%%  XX  %%@@%%  XX  %%;;;;  ::::::::::::::::",
":::::::::::::::  ;;;;%%  XX  %%@@%%  XX  %%;;;;  ::::::::::::::::",
":::::::::::::  %%;;;;@@XXXX@@@@@@@@  XXXX@@;;;;%%  ::::::::::::::",
":::::::::::::  %%;;;;@@XXXX@@@@@@@@  XXXX@@;;;;%%  ::::::::::::::",
":::::::::::::XX%%%%@@  OO@@$$@@    @@  OO  @@%%%%XX::::::::::::::",
":::::::::::::XX%%%%@@  OO@@$$@@    @@  OO  @@%%%%XX::::::::::::::",
":::::::::::::::XX@@@@  &&==@@$$$$@@  ==&&  @@@@XX::::::::::::::::",
":::::::::::::::XX@@@@  &&==@@$$$$@@  ==&&  @@@@XX::::::::::::::::",
":::::::::::::::::XXXXXX&&====@@@@  ====&&XXXXXX::::::::::::::::::",
":::::::::::::::::XXXXXX&&====@@@@  ====&&XXXXXX::::::::::::::::::",
":::::::::::::::::::::::OO**==========**&&::::::::::::::::::::::::",
":::::::::::::::::::::::OO**==========**&&::::::::::::::::::::::::",
":::::::::::::::::::::::OO****========**OO::::::::::::::::::::::::",
":::::::::::::::::::::::OO****========**OO::::::::::::::::::::::::",
":::::::::::::::::::::::::OO**********OO::::::::::::::::::::::::::",
":::::::::::::::::::::::::OO**********OO::::::::::::::::::::::::::",
":::::::::::::::::::::::::XX&&******&&XX::::::::::::::::::::::::::",
":::::::::::::::::::::::::XX&&******&&XX::::::::::::::::::::::::::",
":::::::::::::::::::::::::::OO&&****OO::::::::::::::::::::::::::::",
":::::::::::::::::::::::::::OO&&****OO::::::::::::::::::::::::::::",
":::::::::::::::::::::::::::XX&&&&&&XX::::::::::::::::::::::::::::",
":::::::::::::::::::::::::::XX&&&&&&XX::::::::::::::::::::::::::::",
":::::::::::::::::::::::OOOO**======**OOOO::::::::::::::::::::::::",
":::::::::::::::::::::::OOOO**======**OOOO::::::::::::::::::::::::",
":::::::::::::::::::OOOO&&==============&&OOOO::::::::::::::::::::",
":::::::::::::::::::OOOO&&==============&&OOOO::::::::::::::::::::",
":::::::::::::::::::OO========**&&**========OO::::::::::::::::::::",
":::::::::::::::::::OO========**&&**========OO::::::::::::::::::::",
":::::::::::::::::::::XX****&&XXXXXX&&****XX::::::::::::::::::::::"
};
