/* XPM */
static char *result[] = {
/* columns rows colors chars-per-pixel */
"64 64 6 1 ",
"  c #293C42",
". c #394D63",
"X c #29616B",
"o c #4A5D6B",
"O c #42826B",
"+ c #529E94",
/* pixels */
"....XXXX......XXXX..    ............XXXX......XXXX..    ........",
"++++++XXXXOO++++++++++++++OOXXOO++++++XXXXOO++++++++++++++OOXXOO",
"++++++XXXXOO++++++++++++++OOXXOO++++++XXXXOO++++++++++++++OOXXOO",
"++++++OOXX++++++++++++++++XXXX++++++++OOXX++++++++++++++++XXXX++",
"++++++OOXX++++++++++++++++XXXX++++++++OOXX++++++++++++++++XXXX++",
"......    ..XXXXXX....XXXX..  ........    ..XXXXXX....XXXX..  ..",
"......    ..XXXXXX....XXXX..  ........    ..XXXXXX....XXXX..  ..",
"....++++++++++++++XXOO++++++++++XX..++++++++++++++XXOO++++++++++",
"....++++++++++++++XXOO++++++++++XX..++++++++++++++XXOO++++++++++",
"..XX++++++++++++++OOXX++++++++++OOXX++++++++++++++OOXX++++++++++",
"..XX++++++++++++++OOXX++++++++++OOXX++++++++++++++OOXX++++++++++",
"..XXOO++++++++++++..XX++++++++++XXXXOO++++++++++++..XX++++++++++",
"..XXOO++++++++++++..XX++++++++++XXXXOO++++++++++++..XX++++++++++",
"......    ......XX....XXXX............    ......XX....XXXX......",
"......    ......XX....XXXX............    ......XX....XXXX......",
"++++++++XXXXOOOOOOOOOO..XX++++++++++++++XXXXOOOOOOOOOO..XX++++++",
"++++++++XXXXOOOOOOOOOO..XX++++++++++++++XXXXOOOOOOOOOO..XX++++++",
"++++++++..XXOOOOOOOOOOXX..OO++++++++++++..XXOOOOOOOOOOXX..OO++++",
"++++++++..XXOOOOOOOOOOXX..OO++++++++++++..XXOOOOOOOOOOXX..OO++++",
"......      ..  XX....    ............      ..  XX....    ......",
"......      ..  XX....    ............      ..  XX....    ......",
"++++++++++++++  ++++++++++++++XX++++++++++++++  ++++++++++++++XX",
"++++++++++++++  ++++++++++++++XX++++++++++++++  ++++++++++++++XX",
"++++++++++++OOXX++++++++++++OOOO++++++++++++OOXX++++++++++++OOOO",
"++++++++++++OOXX++++++++++++OOOO++++++++++++OOXX++++++++++++OOOO",
"......XXXXXX....OO++++++++++OOXX......XXXXXX....OO++++++++++OOXX",
"......XXXXXX....OO++++++++++OOXX......XXXXXX....OO++++++++++OOXX",
"..OO++++++++++......    ....XXXXXXOOOO++++++++......    ....XXXX",
"..OO++++++++++......    ....XXXXXXOOOO++++++++......    ....XXXX",
"XX++++++++++++++OOOOXXOOOOOOOO......XXXXOO++++++OOOOXXOOOOOOOOOO",
"XX++++++++++++++OOOOXXOOOOOOOO......XXXXOO++++++OOOOXXOOOOOOOOOO",
"....XXXX......XXXX..    ......OO++++++++XX....XXXX..    ........",
"....XXXX......XXXX..    ......OO++++++++XX....XXXX..    ........",
"++++++XXXXOO++++++++++++++OOXX++++++++++XXOO++++++++++++++OOXXOO",
"++++++XXXXOO++++++++++++++OOXX++++++++++XXOO++++++++++++++OOXXOO",
"++++++OOXX++++++++++++++++XXXX++++++++OO..++++++++++++++++XXXX++",
"++++++OOXX++++++++++++++++XXXX++++++++OO..++++++++++++++++XXXX++",
"......    ..XXXXXX....XXXX..  ........    ..XXXXXX....XXXX..  ..",
"......    ..XXXXXX....XXXX..  ........    ..XXXXXX....XXXX..  ..",
"XX..++++++++++++++XXOO++++++++++XX..++++++++++++++XXOO++++++++++",
"XX..++++++++++++++XXOO++++++++++XX..++++++++++++++XXOO++++++++++",
"XXXX++++++++++++++OOXX++++++++++OOXX++++++++++++++OOXX++++++++++",
"XXXX++++++++++++++OOXX++++++++++OOXX++++++++++++++OOXX++++++++++",
"..XXOO++++++++++++..XX++++++++++XXXXOO++++++++++++..XX++++++++++",
"..XXOO++++++++++++..XX++++++++++XXXXOO++++++++++++..XX++++++++++",
"......    ......XX....XXXX............    ......XX....XX........",
"......    ......XX....XXXX............    ......XX....XX........",
"++++++++XXXXOOOOOOOOOO..XX++++++++++++++XX..OOOOOOOOOO..XX++++++",
"++++++++XXXXOOOOOOOOOO..XX++++++++++++++XX..OOOOOOOOOO..XX++++++",
"++++++++..XXOOOOOOOOOOXX..OO++++++++++++..XXOOOOOOOOOOXX..OO++++",
"++++++++..XXOOOOOOOOOOXX..OO++++++++++++..XXOOOOOOOOOOXX..OO++++",
"......      ..  XX....    ............    ..OOOOOOOOOO..  ......",
"......      ..  XX....    ............    ..OOOOOOOOOO..  ......",
"....    ..........            ..  ....        ....      ..      ",
"....    ..........            ..  ....        ....      ..      ",
"  ....  ..OOOOOOOOOOOOOO..  ..  ....    ..OOOOOOOOOOOOOO        ",
"  ....  ..OOOOOOOOOOOOOO..  ..  ....    ..OOOOOOOOOOOOOO        ",
"OOOOOOOO..OOOOOOOOOOOOOO..XXOOOOOOOOOO....OOOOOOOOOOOOOO..OOOOOO",
"OOOOOOOO..OOOOOOOOOOOOOO..XXOOOOOOOOOO....OOOOOOOOOOOOOO..OOOOOO",
"OOOOOOOOXXOOOOOOOOOOOOOO..XXOOOOOOOOOO....OOOOOOOOOOOOOO..OOOOOO",
"OOOOOOOOXXOOOOOOOOOOOOOO..XXOOOOOOOOOO....OOOOOOOOOOOOOO..OOOOOO",
"XXXXXXXX....XXXXXXXXXXXX  ..XXXXXXXXXX..  ..XXXXXXXXXXXX  ..XXXX",
"XXXXXXXX....XXXXXXXXXXXX  ..XXXXXXXXXX..  ..XXXXXXXXXXXX  ..XXXX",
"......oo..        ..  ....oooooo....oo....  ..  ..      ....oooo"
};
