/* XPM */
static char *result[] = {
/* columns rows colors chars-per-pixel */
"64 64 9 1 ",
"  c #293C42",
". c #394D63",
"X c #29616B",
"o c #4A5D6B",
"O c #5A697B",
"+ c #42826B",
"@ c #637D8C",
"# c #529E94",
"$ c #84C3BD",
/* pixels */
"...OOOOOOOOOOOOOOOO@@@@OOXXXXXXXX....OO@@@@OOOOOOOO@@@@OOoo.....",
"...OOOOOOOOOOOOOOOO@@@@OOXXXXXXXX....OO@@@@OOOOOOOO@@@@OOoo.....",
"$$$XXXXooXXXXXXXX......XX++$$$$$$$$++..ooXXXXXXXXXXooOOXXXX$$$$$",
"$$$XXXXooXXXXXXXX......XX++$$$$$$$$++..ooXXXXXXXXXXooOOXXXX$$$$$",
"$##++XXXX++$$$$$$##......$$$$$$$$####XXXX++$$$$$$##....XX++##$$$",
"$##++XXXX++$$$$$$##......$$$$$$$$####XXXX++$$$$$$##....XX++##$$$",
"+++XX....##$$$$$$++XX..XX++######++XX....####$$$$++XX....XX+++++",
"+++XX....##$$$$$$++XX..XX++######++XX....####$$$$++XX....XX+++++",
".........XX++XXXX......XX..XXXXXX........XX++XXXX..............X",
".........XX++XXXX......XX..XXXXXX........XX++XXXX..............X",
"...XX++XX++++++XX++XXXX++XXXX......XX..XX++++++XX++XXXX++XX.....",
"...XX++XX++++++XX++XXXX++XXXX......XX..XX++++++XX++XXXX++XX.....",
"X++++++XXXXXX####$$$$$$##++XX........XXXXXXXX####$$$$$$##++++XX.",
"X++++++XXXXXX####$$$$$$##++XX........XXXXXXXX####$$$$$$##++++XX.",
"#$$$$$$##++XX++$$$$$$$$$$####++++XXXX++++++XX++$$$$$$$$$$##XXXX.",
"#$$$$$$##++XX++$$$$$$$$$$####++++XXXX++++++XX++$$$$$$$$$$##XXXX.",
"+##$$##++XX++XX++##########++++XXXX++++++XX++XX++##########++...",
"+##$$##++XX++XX++##########++++XXXX++++++XX++XX++##########++...",
".XX++++XXXXXXXXXXXX..XX..XX++XX....XXXXXXXXXXXXXXXX..XX..XXXX...",
".XX++++XXXXXXXXXXXX..XX..XX++XX....XXXXXXXXXXXXXXXX..XX..XXXX...",
".XX++XX++++XXXXXX..XX..............++XX++++XXXXXX..XX......XX..X",
".XX++XX++++XXXXXX..XX..............++XX++++XXXXXX..XX......XX..X",
"...XX++XX++++++XXXXXX++++XXXX......XX++XX++++++XXXXXX++++XX.....",
"...XX++XX++++++XXXXXX++++XXXX......XX++XX++++++XXXXXX++++XX.....",
".XXXXXX++++##$$$$$$$$++XX++..XX..XX..XXXX++##$$$$$$$$++XXXXXX...",
".XXXXXX++++##$$$$$$$$++XX++..XX..XX..XXXX++##$$$$$$$$++XXXXXX...",
".....XXXXXX++##$$$$####XX..XX..XX..XXXXXXXX++##$$$$####XX......X",
".....XXXXXX++##$$$$####XX..XX..XX..XXXXXXXX++##$$$$####XX......X",
"+++++++####++XXXXXXXX++..XXXX++##$$$$$$####++XXXXXXXX++..XX++++X",
"+++++++####++XXXXXXXX++..XXXX++##$$$$$$####++XXXXXXXX++..XX++++X",
"X++##$$$$$$$$##XX........++##$$$$$$$$####$$$$##XX......XX++++XXX",
"X++##$$$$$$$$##XX........++##$$$$$$$$####$$$$##XX......XX++++XXX",
"XXXXX##$$$$##++++......XXXXXXXX##$$$$$$$$$$##++++........XXXXXXX",
"XXXXX##$$$$##++++......XXXXXXXX##$$$$$$$$$$##++++........XXXXXXX",
"+XXXX++++++++XXXXXXXX++++XX....XX..XX++++++++XXXXXXXX++++XXXX+++",
"+XXXX++++++++XXXXXXXX++++XX....XX..XX++++++++XXXXXXXX++++XXXX+++",
"#$$$$$$##XXXXXX++$$$$$$####XX....XX..XX++XXXXXX++$$$$$$$$######+",
"#$$$$$$##XXXXXX++$$$$$$####XX....XX..XX++XXXXXX++$$$$$$$$######+",
"+####$$$$##XX..##$$$$$$$$##++++XX++########XX..##$$$$$$$$$$##++X",
"+####$$$$##XX..##$$$$$$$$##++++XX++########XX..##$$$$$$$$$$##++X",
"XXX++####++XX..XX##$$####++XX++++XX++####++XX..XX##$$####++XXXXX",
"XXX++####++XX..XX##$$####++XX++++XX++####++XX..XX##$$####++XXXXX",
"XXXXX++XXXX......XX++XX++XXXXXXXXXX....XXXX......XX++XX++XXXXXX.",
"XXXXX++XXXX......XX++XX++XXXXXXXXXX....XXXX......XX++XX++XXXXXX.",
"+########++....XX++XX++XX++XXXX++XXXX....XX....XX++XXXXXX++++++X",
"+########++....XX++XX++XX++XXXX++XXXX....XX....XX++XXXXXX++++++X",
"X######++++XXXXXX....XX..XXXXXXXX++++XXXXXXXXXXXX....XX..++++XX.",
"X######++++XXXXXX....XX..XXXXXXXX++++XXXXXXXXXXXX....XX..++++XX.",
"XXX++##++XXXXXXXX........XX++$$$$$$$$$$$$##XXXXXX........XXXXXX+",
"XXX++##++XXXXXXXX........XX++$$$$$$$$$$$$##XXXXXX........XXXXXX+",
".++######++##$$$$$$##++..++####$$$$$$$$######$$$$$$##++####++..X",
".++######++##$$$$$$##++..++####$$$$$$$$######$$$$$$##++####++..X",
".XX++++XXXX++##$$$$$$##XX++++######++++++##$$$$$$$$$$##++++XX..X",
".XX++++XXXX++##$$$$$$##XX++++######++++++##$$$$$$$$$$##++++XX..X",
".XXXXXXXXXX++######++XXXXXX++++XX........XX++######++XXXXXXXX...",
".XXXXXXXXXX++######++XXXXXX++++XX........XX++######++XXXXXXXX...",
".++####....XX++XXXXXXXX++######++++XX  ....XX++XXXX++######++.. ",
".++####....XX++XXXXXXXX++######++++XX  ....XX++XXXX++######++.. ",
" ..XX++  ..XXXXXX++XX++######++....      ..XXXXXX..XX++++XX..   ",
" ..XX++  ..XXXXXX++XX++######++....      ..XXXXXX..XX++++XX..   ",
"     ..      XX++XX..XXXXXX..XX..    ..      XX......  ..       ",
"     ..      XX++XX..XXXXXX..XX..    ..      XX......  ..       ",
".  ....      ..XX..  ..    ....              ..XX..    ....  .. ",
".  ....      ..XX..  ..    ....              ..XX..    ....  .. "
};
