/* XPM */
static char *result[] = {
/* columns rows colors chars-per-pixel */
"64 64 5 1 ",
"  c #293C42",
". c #394D63",
"X c #47576F",
"o c #5A738D",
"O c #658DA9",
/* pixels */
"oooooooooXX..oooooooooooooooo  oooooooooooo..XXoooooooooooooo..X",
"oooooooooXX..oooooooooooooooo  oooooooooooo..XXoooooooooooooo..X",
"ooooooooo..XXoooooooooooooooo..ooooooooooooXXXXoooooooooooooo..X",
"ooooooooo..XXoooooooooooooooo..ooooooooooooXXXXoooooooooooooo..X",
" ..  ..    ..oooooooooooooooo..oooooooooooo..XXoooooooooooooo  X",
" ..  ..    ..oooooooooooooooo..oooooooooooo..XXoooooooooooooo  X",
" ........    ..        ....  ..ooooooooooooXX....      ....     ",
" ........    ..        ....  ..ooooooooooooXX....      ....     ",
" XXXXXXXXXXXX....XXXXXXXXXXXX    ..  ..  ......  XXXXXXXX..XXXXX",
" XXXXXXXXXXXX....XXXXXXXXXXXX    ..  ..  ......  XXXXXXXX..XXXXX",
".....XXXXXX....        ..  ......  ..      ..          ......XX.",
".....XXXXXX....        ..  ......  ..      ..          ......XX.",
".ooOOOOOOOOOOOOOOOOXXoooooooooo..ooOOOOOOOOOOOOOOOOXXoooooooooo.",
".ooOOOOOOOOOOOOOOOOXXoooooooooo..ooOOOOOOOOOOOOOOOOXXoooooooooo.",
".OOOOOOOOOOOOOOOOOOXXooooooooooXXOOOOOOOOOOOOOOOOOOXXooooooooooX",
".OOOOOOOOOOOOOOOOOOXXooooooooooXXOOOOOOOOOOOOOOOOOOXXooooooooooX",
"...XXXX......XXXX..    ............XXXX......XXXX..    .........",
"...XXXX......XXXX..    ............XXXX......XXXX..    .........",
"OOOOOXXXXooOOOOOOOOOOOOOOooXXooOOOOOOXXXXooOOOOOOOOOOOOOOooXXooO",
"OOOOOXXXXooOOOOOOOOOOOOOOooXXooOOOOOOXXXXooOOOOOOOOOOOOOOooXXooO",
"OOOOOooXXOOOOOOOOOOOOOOOOXXXXOOOOOOOOooXXOOOOOOOOOOOOOOOOXXXXOOO",
"OOOOOooXXOOOOOOOOOOOOOOOOXXXXOOOOOOOOooXXOOOOOOOOOOOOOOOOXXXXOOO",
".....    ..XXXXXX....XXXX..  ........    ..XXXXXX....XXXX..  ...",
".....    ..XXXXXX....XXXX..  ........    ..XXXXXX....XXXX..  ...",
"...OOOOOOOOOOOOOOXXooOOOOOOOOOOXX..OOOOOOOOOOOOOOXXooOOOOOOOOOOX",
"...OOOOOOOOOOOOOOXXooOOOOOOOOOOXX..OOOOOOOOOOOOOOXXooOOOOOOOOOOX",
".XXOOOOOOOOOOOOOOooXXOOOOOOOOOOooXXOOOOOOOOOOOOOOooXXOOOOOOOOOOo",
".XXOOOOOOOOOOOOOOooXXOOOOOOOOOOooXXOOOOOOOOOOOOOOooXXOOOOOOOOOOo",
".XXooOOOOOOOOOOOO..XXOOOOOOOOOOXXXXooOOOOOOOOOOOO..XXOOOOOOOOOOX",
".XXooOOOOOOOOOOOO..XXOOOOOOOOOOXXXXooOOOOOOOOOOOO..XXOOOOOOOOOOX",
".....    ......XX....XXXX............    ......XX....XXXX.......",
".....    ......XX....XXXX............    ......XX....XXXX.......",
"OOOOOOOXXXXoooooooooo..XXOOOOOOOOOOOOOOXXXXoooooooooo..XXOOOOOOO",
"OOOOOOOXXXXoooooooooo..XXOOOOOOOOOOOOOOXXXXoooooooooo..XXOOOOOOO",
"OOOOOOO..XXooooooooooXX..ooOOOOOOOOOOOO..XXooooooooooXX..ooOOOOO",
"OOOOOOO..XXooooooooooXX..ooOOOOOOOOOOOO..XXooooooooooXX..ooOOOOO",
".....      ..  XX....    ............      ..  XX....    .......",
".....      ..  XX....    ............      ..  XX....    .......",
"OOOOOOOOOOOOO  OOOOOOOOOOOOOOXXOOOOOOOOOOOOOO  OOOOOOOOOOOOOOXXO",
"OOOOOOOOOOOOO  OOOOOOOOOOOOOOXXOOOOOOOOOOOOOO  OOOOOOOOOOOOOOXXO",
"OOOOOOOOOOOooXXOOOOOOOOOOOOooooOOOOOOOOOOOOooXXOOOOOOOOOOOOooooO",
"OOOOOOOOOOOooXXOOOOOOOOOOOOooooOOOOOOOOOOOOooXXOOOOOOOOOOOOooooO",
".....XXXXXX....ooOOOOOOOOOOooXX......XXXXXX....ooOOOOOOOOOOooXX.",
".....XXXXXX....ooOOOOOOOOOOooXX......XXXXXX....ooOOOOOOOOOOooXX.",
".ooOOOOOOOOOO......    ....XXXXXXooooOOOOOOOO......    ....XXXX.",
".ooOOOOOOOOOO......    ....XXXXXXooooOOOOOOOO......    ....XXXX.",
"XOOOOOOOOOOOOOOooooXXoooooooo......XXXXooOOOOOOooooXXooooooooooX",
"XOOOOOOOOOOOOOOooooXXoooooooo......XXXXooOOOOOOooooXXooooooooooX",
"...XXXX......XXXX..    ......ooOOOOOOOOXX....XXXX..    .........",
"...XXXX......XXXX..    ......ooOOOOOOOOXX....XXXX..    .........",
"OOOOOXXXXooOOOOOOOOOOOOOOooXXOOOOOOOOOOXXooOOOOOOOOOOOOOOooXXooO",
"OOOOOXXXXooOOOOOOOOOOOOOOooXXOOOOOOOOOOXXooOOOOOOOOOOOOOOooXXooO",
"OOOOOooXXOOOOOOOOOOOOOOOOXXXXOOOOOOOOoo..OOOOOOOOOOOOOOOOXXXXOOO",
"OOOOOooXXOOOOOOOOOOOOOOOOXXXXOOOOOOOOoo..OOOOOOOOOOOOOOOOXXXXOOO",
".....    ..XXXXXX....XXXX..  ........    ..XXXXXX....XXXX..  ...",
".....    ..XXXXXX....XXXX..  ........    ..XXXXXX....XXXX..  ...",
"X..OOOOOOOOOOOOOOXXooOOOOOOOOOOXX..OOOOOOOOOOOOOOXXooOOOOOOOOOOX",
"X..OOOOOOOOOOOOOOXXooOOOOOOOOOOXX..OOOOOOOOOOOOOOXXooOOOOOOOOOOX",
"XXXOOOOOOOOOOOOOOooXXOOOOOOOOOOooXXOOOOOOOOOOOOOOooXXOOOOOOOOOOo",
"XXXOOOOOOOOOOOOOOooXXOOOOOOOOOOooXXOOOOOOOOOOOOOOooXXOOOOOOOOOOo",
".XXooOOOOOOOOOOOO..XXOOOOOOOOOOXXXXooOOOOOOOOOOOO..XXOOOOOOOOOOX",
".XXooOOOOOOOOOOOO..XXOOOOOOOOOOXXXXooOOOOOOOOOOOO..XXOOOOOOOOOOX",
".....    ......XX....XXXX............    ......XX....XX.........",
".....    ......XX....XXXX............    ......XX....XX........."
};
