/* XPM */
static char *result[] = {
/* columns rows colors chars-per-pixel */
"64 64 6 1 ",
"  c #293C42",
". c #394D63",
"X c #47576F",
"o c #5A738D",
"O c #658DA9",
"+ c #7DB8C3",
/* pixels */
"XXXXXXXXXXX    ........XXXXooOO++++OOOOXX..XX........  ......  .",
"     ..  ......  OO++++OOooooXXXXXXXXoo..XXXXooOOOOXX    ..     ",
"     ..  ......  OO++++OOooooXXXXXXXXoo..XXXXooOOOOXX    ..     ",
"OXXoooooooooo..oo++++OOOO++++OOXX........ooOO++++++OOooOOOOOOOO+",
"OXXoooooooooo..oo++++OOOO++++OOXX........ooOO++++++OOooOOOOOOOO+",
"OXXooooooooooXXOO++++++++++OOoooo......XXXXooOOooooooXXOOOOOOOO+",
"OXXooooooooooXXOO++++++++++OOoooo......XXXXooOOooooooXXOOOOOOOO+",
".    ..............XXooooooooXXXXXXXXooooXX..ooooXX........XXXX+",
".    ..............XXooooooooXXXXXXXXooooXX..ooooXX........XXXX+",
"OOOOOOOooXXooOOOOXX..XXooXXXXXXoo++++++OOOOXX....XXoo..ooOOOOOO.",
"OOOOOOOooXXooOOOOXX..XXooXXXXXXoo++++++OOOOXX....XXoo..ooOOOOOO.",
"OOOOOOOXXXXOOOOOOooOOOOOOOOXX..OO++++++++OOooXXXXooooXXOOOOOOOOX",
"OOOOOOOXXXXOOOOOOooOOOOOOOOXX..OO++++++++OOooXXXXooooXXOOOOOOOOX",
"...XXXX..    ....XXooOOOOooXX..XXOO++OOOOoo........    ..XXXXXXo",
"...XXXX..    ....XXooOOOOooXX..XXOO++OOOOoo........    ..XXXXXXo",
"XooOOOOOOOOOOXX..XX....XX........XXooXXooXXXX..XXOOOOOOOOOOOOOOo",
"XooOOOOOOOOOOXX..XX....XX........XXooXXooXXXX..XXOOOOOOOOOOOOOOo",
"oXXOOOOOOOOOOooXX..XX....XX....XXooXXooXXooXXXXooOOOOOOOOOOOOOO ",
"oXXOOOOOOOOOOooXX..XX....XX....XXooXXooXXooXXXXooOOOOOOOOOOOOOO ",
".XXOOOOOOOOOOXX......ooooooXXoo++++++++++OOOO..ooooOOOOOOOOOOOO.",
".XXOOOOOOOOOOXX......ooooooXXoo++++++++++OOOO..ooooOOOOOOOOOOOO.",
"...XXXX..........XXooooooXXooXXooOOOOOOOOooXXXX      ........XX.",
"...XXXX..........XXooooooXXooXXooOOOOOOOOooXXXX      ........XX.",
"ooo..XXOOOOOOOOoo..XXXXXXXXXXXXXXXX..XX..XXoooooooo..XXXXooooooo",
"ooo..XXOOOOOOOOoo..XXXXXXXXXXXXXXXX..XX..XXoooooooo..XXXXooooooo",
"oooXX..ooOOOOOOXXXXooXXooooXXXXXX..XX......oooooo......XXooooooo",
"oooXX..ooOOOOOOXXXXooXXooooXXXXXX..XX......oooooo......XXooooooo",
"...    ............XXooXXooooooXXXXXXooooXXXX......      ..  XX.",
"...    ............XXooXXooooooXXXXXXooooXXXX......      ..  XX.",
"OOOOOOOOOOOXXoooooo..XXXXooOO++++++++ooXXoo..XX..OOOOOOOOOO  OOO",
"OOOOOOOOOOOXXoooooo..XXXXooOO++++++++ooXXoo..XX..OOOOOOOOOO  OOO",
"OOOOOOOOOoooooooooo..XXXXXXooOO++++OOOOXX..XX..XXooOOOOOOooXXOOO",
"OOOOOOOOOoooooooooo..XXXXXXooOO++++OOOOXX..XX..XXooOOOOOOooXXOOO",
"OOOOOOOOOooXX....XXXXooXXXXXXXXXXXXXXoo..XXXXooOO..XXXXXX....ooO",
"OOOOOOOOOooXX....XXXXooXXXXXXXXXXXXXXoo..XXXXooOO..XXXXXX....ooO",
".    ....XXXXXXoo++++++++++++OOXX........ooOO++++ooXXOOOOOO.....",
".    ....XXXXXXoo++++++++++++OOXX........ooOO++++ooXXOOOOOO.....",
"oXXoooooooo......ooOO++++OOOOoooo......XXXXooOOOOooXXooOOOOOOooo",
"oXXoooooooo......ooOO++++OOOOoooo......XXXXooOOOOooXXooOOOOOOooo",
".    ......ooOOoo..XXooooooooXXXXXXXXooooXX....XXXXXXXX....XXXX.",
".    ......ooOOoo..XXooooooooXXXXXXXXooooXX....XXXXXXXX....XXXX.",
"OOOOOOOooXXOOOOOO  ..XXooXXXXXXoo++++++OOOOXX..XXooooXXooOOOOOOO",
"OOOOOOOooXXOOOOOO  ..XXooXXXXXXoo++++++OOOOXX..XXooooXXooOOOOOOO",
"OOOOOOOXXXXOOOOoo  ..OOOOOOXX..OO++++++++OOooooXXXXoo..OOOOOOOOO",
"OOOOOOOXXXXOOOOoo  ..OOOOOOXX..OO++++++++OOooooXXXXoo..OOOOOOOOO",
"...XXXX........    ooOOOOooXX..XXOO++OOOOooXXoooo..    ..XXXXXX.",
"...XXXX........    ooOOOOooXX..XXOO++OOOOooXXoooo..    ..XXXXXX.",
"XooOOOOOOOOOOXX..XX....XX........XXooXXooXXXXXXXXooOOOOOOOOOOOOX",
"XooOOOOOOOOOOXX..XX....XX........XXooXXooXXXXXXXXooOOOOOOOOOOOOX",
"oXXOOOOOOOOOOooXXXXXX....XX....XXooXXooXXooXXXXooooOOOOOOOOOOOOo",
"oXXOOOOOOOOOOooXXXXXX....XX....XXooXXooXXooXXXXooooOOOOOOOOOOOOo",
".XXOOOOOOOOooXXXXooooXXXXXXXXXXXX....XX..XXXXXXXXXXXXooOOOOOOOO.",
".XXOOOOOOOOooXXXXooooXXXXXXXXXXXX....XX..XXXXXXXXXXXXooOOOOOOOO.",
"...XXXX......OO++++++++++ooXXXXXX........XXoo++++++++........XX.",
"...XXXX......OO++++++++++ooXXXXXX........XXoo++++++++........XX.",
"ooo..XXXXXX..ooOO++++++OOOOOO++++++OOoo..ooOOOO++++OOXX..ooooooo",
"ooo..XXXXXX..ooOO++++++OOOOOO++++++OOoo..ooOOOO++++OOXX..ooooooo",
"oooXX..XXXX......XXooooXXOO++++++++++OOXXooooOOOOOOoo..XXooooooo",
"oooXX..XXXX......XXooooXXOO++++++++++OOXXooooOOOOOOoo..XXooooooo",
"...    ....  ....ooooooXXXXooOOOOOOooXXXXXXooXXXXXX..  ..oooooo.",
"...    ....  ....ooooooXXXXooOOOOOOooXXXXXXooXXXXXX..  ..oooooo.",
"           ..  ..XXooooXX..XXooXXXXXXXXooOOOOOOoo....      .... ",
"           ..  ..XXooooXX..XXooXXXXXXXXooOOOOOOoo....      .... ",
"ooooo..  ..              ..XXXXXXooXXooOOOOOOoo  ..XXooXXooooooo"
};
